<svg width="377" height="480" viewBox="0 0 377 480" fill="none" xmlns="http://www.w3.org/2000/svg">
<g clip-path="url(#clip0_16_12)">
<rect x="87.75" y="303.75" width="346.5" height="195.5" rx="16.25" fill="#2F2F9C" stroke="#5152FB" stroke-width="1.5"/>
<path d="M451.198 173.594C464.506 177.562 476.964 184.739 488.218 194.926C499.093 204.769 508.387 216.982 515.858 231.24C523.421 245.778 528.695 261.396 531.495 277.543C534.502 294.484 534.845 311.791 532.513 328.839C530.184 345.821 525.311 361.53 518.041 375.501C511.015 389.004 502.058 400.342 491.414 409.198C480.77 418.054 468.976 423.984 456.362 426.82C443.206 429.756 429.512 429.219 416.626 425.263C403.318 421.295 390.856 414.096 379.618 403.94C368.747 394.103 359.443 381.887 351.961 367.596C344.395 353.059 339.121 337.44 336.324 321.293C333.315 304.355 332.971 287.051 335.303 270.007C337.618 253.025 342.51 237.336 349.807 223.343C356.832 209.839 365.789 198.501 376.433 189.645C387.077 180.789 398.865 174.863 411.449 172.044C424.606 169.111 438.299 169.647 451.186 173.601L451.198 173.594ZM451.272 172.941C396.54 156.612 344.367 199.987 334.791 269.874C325.215 339.762 361.815 409.621 416.54 425.923C471.264 442.224 523.443 398.847 533.036 328.989C542.629 259.131 506.018 189.238 451.284 172.934L451.272 172.941Z" fill="#5152FB"/>
<path d="M431.859 165.602C445.891 167.939 459.34 173.593 471.817 182.424C483.87 190.944 494.522 202.049 503.483 215.43C512.563 229.086 519.392 244.112 523.708 259.933C528.329 276.625 530.24 293.952 529.369 311.251C528.639 327.945 525.027 344.387 518.693 359.85C512.682 374.258 504.503 386.74 494.358 396.94C484.214 407.141 472.639 414.537 459.932 418.94C446.777 423.499 432.682 424.65 418.962 422.288C404.931 419.951 391.482 414.297 379.004 405.467C366.948 396.94 356.296 385.835 347.338 372.46C338.257 358.802 331.428 343.774 327.11 327.952C322.482 311.258 320.569 293.928 321.446 276.627C322.175 259.933 325.787 243.491 332.121 228.028C338.136 213.626 346.318 201.15 356.469 190.946C366.62 180.742 378.194 173.347 390.901 168.943C404.055 164.382 418.151 163.23 431.871 165.595L431.859 165.602ZM431.901 164.919C374.187 155.314 324.498 205.283 320.924 276.548C317.351 347.813 361.243 413.375 418.932 422.964C476.621 432.552 526.341 382.597 529.915 311.332C533.488 240.067 489.596 174.505 431.904 164.91L431.901 164.919Z" fill="#5152FB"/>
<path d="M411.274 159.972C426.183 160.66 440.739 164.742 453.832 171.908C466.984 178.969 478.934 188.794 489.332 201.107C499.889 213.671 508.267 227.914 514.12 243.245C520.384 259.472 523.911 276.627 524.557 294.009C525.288 310.953 523.053 327.895 517.952 344.071C513.366 358.735 506.009 372.384 496.28 384.276C487.223 395.404 475.82 404.394 462.885 410.603C449.85 416.782 435.499 419.674 421.088 419.025C406.177 418.33 391.622 414.246 378.526 407.083C365.374 400.022 353.433 390.199 343.029 377.89C332.476 365.323 324.098 351.081 318.241 335.752C311.983 319.521 308.461 302.365 307.816 284.981C307.083 268.035 309.32 251.091 314.427 234.916C319.012 220.252 326.366 206.603 336.09 194.708C345.146 183.579 356.551 174.591 369.488 168.387C382.521 162.201 396.874 159.308 411.286 159.965L411.274 159.972ZM411.257 159.284C351.09 156.769 304.525 213.043 307.252 284.95C309.978 356.858 360.968 417.212 421.136 419.727C481.303 422.241 527.828 365.927 525.118 294.034C522.408 222.14 471.395 161.775 411.245 159.291L411.257 159.284Z" fill="#5152FB"/>
<path d="M389.614 156.872C404.867 155.698 420.187 157.992 434.427 163.583C448.947 169.275 462.226 177.729 473.528 188.477C485.478 199.749 495.377 213.015 502.78 227.68C510.689 243.22 515.865 260.005 518.081 277.3C520.351 294.311 519.575 311.589 515.79 328.327C512.335 343.725 505.99 358.328 497.089 371.359C488.731 383.692 477.839 394.101 465.14 401.892C452.344 409.689 437.887 414.354 422.947 415.505C407.696 416.662 392.382 414.354 378.15 408.752C363.63 403.06 350.351 394.607 339.049 383.859C327.099 372.586 317.201 359.32 309.797 344.656C301.893 329.122 296.724 312.344 294.516 295.056C292.245 278.04 293.029 260.756 296.831 244.015C300.279 228.624 306.617 214.026 315.508 200.997C323.859 188.674 334.74 178.271 347.427 170.481C360.22 162.684 374.676 158.021 389.614 156.872V156.872ZM389.53 156.191C327.478 161.106 284.694 223.297 293.955 295.086C303.215 366.876 361.017 421.085 423.084 416.154C485.151 411.223 527.917 349.043 518.656 277.254C509.396 205.464 451.573 151.274 389.512 156.202L389.53 156.191Z" fill="#5152FB"/>
<path d="M367.083 156.438C382.53 153.367 398.467 153.772 413.738 157.623C429.06 161.486 443.471 168.328 456.148 177.761C469.401 187.543 480.778 199.639 489.73 213.466C499.251 228.103 506.071 244.328 509.867 261.372C513.734 278.249 514.491 295.689 512.101 312.837C509.907 328.811 504.716 344.226 496.801 358.273C489.26 371.753 479.01 383.527 466.697 392.853C454.265 402.249 439.861 408.7 424.573 411.72C409.124 414.785 393.187 414.378 377.915 410.529C362.595 406.664 348.186 399.82 335.51 390.388C322.272 380.593 310.912 368.488 301.976 354.655C292.453 340.021 285.627 323.8 281.822 306.759C277.956 289.881 277.201 272.44 279.593 255.291C281.785 239.324 286.968 223.915 294.869 209.869C302.413 196.398 312.655 184.63 324.955 175.299C337.388 165.902 351.793 159.453 367.083 156.438V156.438ZM366.918 155.741C303.644 168.328 265.23 236.001 281.195 306.868C297.159 377.735 361.437 424.972 424.745 412.374C488.052 399.776 526.432 332.114 510.465 261.256C494.499 190.398 430.239 143.166 366.932 155.764L366.918 155.741Z" fill="#5152FB"/>
<path d="M343.89 158.779C359.385 153.808 375.772 152.251 391.925 154.214C407.894 156.156 423.321 161.241 437.316 169.175C451.745 177.294 464.533 188.033 475.025 200.841C497.33 228.052 508.71 262.591 506.949 297.732C506.101 314.145 502.154 330.25 495.317 345.196C488.72 359.717 479.273 372.767 467.538 383.569C455.593 394.54 441.399 402.773 425.945 407.694C410.451 412.668 394.063 414.225 377.91 412.259C361.944 410.317 346.52 405.233 332.529 397.3C318.091 389.188 305.293 378.455 294.79 365.652C272.491 338.437 261.112 303.901 262.866 268.76C263.715 252.349 267.663 236.246 274.501 221.303C281.105 206.772 290.562 193.717 302.31 182.912C314.247 171.951 328.43 163.723 343.87 158.799L343.89 158.779ZM343.651 158.132C279.761 178.589 246.407 251.195 269.175 320.283C291.942 389.37 362.233 428.816 426.139 408.359C490.044 387.901 523.384 315.311 500.639 246.195C477.894 177.078 407.594 137.669 343.682 158.13L343.651 158.132Z" fill="#5152FB"/>
<path d="M320.296 163.99C335.698 157.103 352.372 153.519 369.244 153.468C385.698 153.422 402 156.617 417.219 162.871C432.681 169.173 446.798 178.369 458.811 189.965C484.167 214.525 499.034 247.945 500.297 283.222C500.882 299.909 498.272 316.553 492.609 332.26C487.07 347.756 478.534 362.008 467.487 374.205C456.143 386.694 442.325 396.687 426.912 403.55C411.499 410.413 394.826 413.996 377.954 414.071C361.502 414.119 345.201 410.925 329.982 404.674C314.526 398.365 300.416 389.162 288.411 377.561C263.044 353.012 248.166 319.597 246.895 284.32C246.318 267.632 248.929 250.988 254.589 235.279C260.129 219.786 268.663 205.535 279.706 193.338C291.037 180.827 304.864 170.829 320.296 163.99V163.99ZM320.018 163.358C256.161 191.793 228.413 268.74 258.017 335.227C287.622 401.715 363.37 432.589 427.221 404.197C491.072 375.806 518.8 298.838 489.198 232.341C459.596 165.845 383.828 134.95 319.995 163.371L320.018 163.358Z" fill="#5152FB"/>
<path d="M296.477 172.154C322.68 156.998 353.32 151.375 383.197 156.241C413.073 161.108 440.346 176.162 460.385 198.85C480.424 221.538 491.994 250.461 493.133 280.71C494.271 310.959 484.908 340.67 466.631 364.799C445.651 392.541 414.509 410.813 380.058 415.594C345.606 420.376 310.666 411.275 282.924 390.295C255.182 369.315 236.91 338.174 232.129 303.722C227.348 269.27 236.448 234.33 257.428 206.588C267.995 192.6 281.277 180.888 296.477 172.154V172.154ZM296.134 171.56C233.123 207.939 211.516 288.578 247.895 351.589C284.275 414.601 364.913 436.208 427.925 399.828C490.936 363.448 512.543 282.81 476.164 219.798C439.784 156.787 359.146 135.18 296.134 171.56Z" fill="#5152FB"/>
<path d="M29.773 335.035L35.4421 331.946L32.2863 337.548L34.5584 342.577L29.5336 340.31L23.9455 343.48L27.0203 337.796L24.7482 332.767L29.773 335.035Z" fill="#FDBC42"/>
<path d="M206.882 253.116C206.737 253.116 206.591 253.092 206.445 253.055C205.645 252.813 205.183 251.963 205.426 251.163L207.853 243.084C208.095 242.283 208.945 241.822 209.746 242.065C210.546 242.307 211.007 243.157 210.765 243.957L208.338 252.036C208.132 252.691 207.525 253.116 206.882 253.116Z" fill="#9FB0FF"/>
<path d="M199.699 277.001C199.553 277.001 199.407 276.977 199.262 276.94C198.461 276.698 198 275.849 198.242 275.048L200.669 266.969C200.912 266.168 201.761 265.707 202.562 265.95C203.363 266.193 203.824 267.042 203.581 267.842L201.155 275.921C200.948 276.577 200.342 277.001 199.699 277.001Z" fill="#9FB0FF"/>
<path d="M211.768 257.107C211.222 257.107 210.7 256.816 210.433 256.307C210.033 255.567 210.312 254.645 211.052 254.256L218.49 250.265C219.23 249.865 220.152 250.144 220.54 250.884C220.928 251.624 220.661 252.546 219.921 252.934L212.484 256.925C212.253 257.047 212.01 257.107 211.768 257.107Z" fill="#9FB0FF"/>
<path d="M189.797 268.922C189.251 268.922 188.729 268.631 188.462 268.122C188.062 267.382 188.341 266.46 189.081 266.072L196.519 262.081C197.259 261.68 198.181 261.959 198.569 262.699C198.97 263.439 198.691 264.361 197.951 264.749L190.513 268.741C190.294 268.862 190.04 268.922 189.797 268.922Z" fill="#9FB0FF"/>
<path d="M220.481 265.817C220.335 265.817 220.189 265.792 220.044 265.756L211.963 263.33C211.162 263.087 210.701 262.238 210.944 261.437C211.186 260.637 212.036 260.176 212.836 260.418L220.917 262.845C221.718 263.087 222.179 263.936 221.937 264.737C221.742 265.392 221.136 265.817 220.481 265.817Z" fill="#9FB0FF"/>
<path d="M196.602 258.635C196.456 258.635 196.31 258.611 196.165 258.575L188.084 256.149C187.283 255.906 186.822 255.057 187.065 254.256C187.307 253.456 188.157 252.995 188.958 253.237L197.038 255.663C197.839 255.906 198.3 256.755 198.058 257.556C197.851 258.211 197.245 258.635 196.602 258.635Z" fill="#9FB0FF"/>
<path d="M212.4 275.716C211.854 275.716 211.332 275.425 211.065 274.916L207.073 267.479C206.673 266.739 206.952 265.817 207.692 265.429C208.432 265.029 209.355 265.308 209.743 266.048L213.735 273.484C214.135 274.224 213.856 275.146 213.116 275.534C212.898 275.656 212.643 275.716 212.4 275.716Z" fill="#9FB0FF"/>
<path d="M200.591 253.747C200.045 253.747 199.524 253.456 199.257 252.946L195.265 245.51C194.864 244.77 195.144 243.848 195.884 243.46C196.624 243.06 197.546 243.339 197.934 244.079L201.926 251.515C202.327 252.255 202.048 253.177 201.307 253.565C201.077 253.686 200.834 253.747 200.591 253.747Z" fill="#9FB0FF"/>
<path d="M162.386 296.305H316.848C318.482 296.305 320.049 296.954 321.204 298.11C322.359 299.265 323.009 300.832 323.009 302.465V395.703H156.227V302.47C156.226 301.661 156.385 300.859 156.694 300.111C157.004 299.364 157.457 298.684 158.029 298.112C158.601 297.539 159.28 297.085 160.028 296.775C160.775 296.465 161.576 296.306 162.386 296.305Z" fill="#FF99A2"/>
<path d="M317.307 390.252H161.922C161.859 390.252 161.799 390.227 161.755 390.183C161.71 390.138 161.686 390.078 161.686 390.015V302.624C161.686 302.397 161.776 302.179 161.936 302.018C162.097 301.857 162.315 301.767 162.542 301.767H316.694C316.922 301.767 317.14 301.857 317.3 302.018C317.461 302.179 317.551 302.397 317.551 302.624V390.013C317.552 390.045 317.546 390.077 317.533 390.106C317.521 390.136 317.503 390.163 317.48 390.185C317.458 390.207 317.43 390.225 317.401 390.236C317.371 390.248 317.339 390.253 317.307 390.252ZM162.158 389.78H317.07V302.624C317.07 302.523 317.03 302.426 316.959 302.355C316.888 302.284 316.791 302.244 316.69 302.244H162.538C162.437 302.244 162.341 302.284 162.27 302.355C162.198 302.427 162.158 302.523 162.158 302.624V389.78Z" fill="black"/>
<path d="M161.536 403.193C160.067 403.191 158.659 402.606 157.62 401.567C156.581 400.529 155.996 399.121 155.994 397.651C155.998 397.592 156.025 397.535 156.069 397.494C156.112 397.453 156.17 397.431 156.23 397.431C156.29 397.431 156.348 397.453 156.392 397.494C156.436 397.535 156.462 397.592 156.466 397.651C156.468 398.996 157.004 400.284 157.954 401.234C158.905 402.184 160.194 402.718 161.538 402.719C161.601 402.719 161.661 402.744 161.706 402.788C161.75 402.833 161.775 402.893 161.775 402.956C161.775 403.019 161.75 403.079 161.706 403.123C161.661 403.168 161.601 403.193 161.538 403.193H161.536Z" fill="black"/>
<path d="M305.795 385.802H204.887V260.236H274.03L305.795 291.987V385.802Z" fill="white"/>
<path d="M305.797 386.038H204.889C204.858 386.038 204.827 386.032 204.799 386.02C204.77 386.008 204.744 385.991 204.722 385.969C204.7 385.947 204.682 385.921 204.67 385.892C204.658 385.864 204.652 385.833 204.652 385.802V260.237C204.652 260.174 204.677 260.114 204.722 260.069C204.766 260.025 204.826 260 204.889 260H274.033C274.064 260 274.094 260.006 274.123 260.018C274.152 260.03 274.178 260.047 274.2 260.07L305.964 291.819C306.008 291.863 306.033 291.923 306.034 291.986V385.801C306.034 385.832 306.028 385.863 306.016 385.892C306.004 385.92 305.987 385.947 305.965 385.969C305.943 385.991 305.916 386.008 305.888 386.02C305.859 386.032 305.828 386.038 305.797 386.038ZM205.128 385.565H305.563V292.085L273.935 260.472H205.125L205.128 385.565Z" fill="black"/>
<path d="M283.658 279.625H227.524C226.729 279.625 225.966 279.309 225.404 278.747C224.841 278.185 224.525 277.422 224.525 276.627C224.525 275.831 224.841 275.069 225.404 274.506C225.966 273.944 226.729 273.628 227.524 273.628H283.658V279.625Z" fill="#D7E0FF"/>
<path d="M305.754 292.031L274.154 292.037V260.338L305.754 292.031Z" fill="white"/>
<path d="M274.156 292.274C274.124 292.274 274.094 292.268 274.065 292.256C274.036 292.244 274.01 292.227 273.989 292.205C273.967 292.183 273.949 292.157 273.938 292.128C273.926 292.099 273.92 292.069 273.92 292.038V260.339C273.921 260.293 273.935 260.248 273.961 260.21C273.987 260.172 274.023 260.142 274.066 260.124C274.109 260.106 274.156 260.101 274.202 260.11C274.248 260.12 274.29 260.142 274.323 260.176L305.926 291.865C305.959 291.898 305.982 291.94 305.991 291.986C306 292.032 305.996 292.079 305.978 292.123C305.96 292.166 305.929 292.203 305.891 292.228C305.852 292.254 305.806 292.268 305.759 292.268L274.156 292.274ZM274.392 260.911V291.807L305.186 291.801L274.392 260.911Z" fill="black"/>
<path d="M289.512 300.81H264.416C264.356 300.806 264.3 300.779 264.259 300.735C264.218 300.691 264.195 300.634 264.195 300.574C264.195 300.514 264.218 300.456 264.259 300.412C264.3 300.368 264.356 300.341 264.416 300.337H289.512C289.571 300.341 289.628 300.368 289.669 300.412C289.71 300.456 289.732 300.514 289.732 300.574C289.732 300.634 289.71 300.691 289.669 300.735C289.628 300.779 289.571 300.806 289.512 300.81Z" fill="black"/>
<path d="M257.326 300.81H226.998C226.938 300.806 226.882 300.779 226.841 300.735C226.8 300.691 226.777 300.634 226.777 300.574C226.777 300.514 226.8 300.456 226.841 300.412C226.882 300.368 226.938 300.341 226.998 300.337H257.329C257.389 300.341 257.445 300.368 257.486 300.412C257.527 300.456 257.55 300.514 257.55 300.574C257.55 300.634 257.527 300.691 257.486 300.735C257.445 300.779 257.389 300.806 257.329 300.81H257.326Z" fill="black"/>
<path d="M289.51 307.895H276.889C276.857 307.897 276.824 307.892 276.794 307.882C276.763 307.871 276.735 307.854 276.712 307.831C276.688 307.809 276.669 307.783 276.656 307.753C276.643 307.723 276.637 307.691 276.637 307.659C276.637 307.626 276.643 307.594 276.656 307.564C276.669 307.535 276.688 307.508 276.712 307.486C276.735 307.464 276.763 307.447 276.794 307.436C276.824 307.425 276.857 307.42 276.889 307.422H289.51C289.57 307.426 289.626 307.453 289.667 307.497C289.708 307.541 289.731 307.599 289.731 307.659C289.731 307.719 289.708 307.776 289.667 307.82C289.626 307.864 289.57 307.891 289.51 307.895Z" fill="black"/>
<path d="M269.797 307.895H219.903C219.871 307.897 219.838 307.892 219.808 307.882C219.777 307.871 219.749 307.854 219.725 307.831C219.702 307.809 219.683 307.783 219.67 307.753C219.657 307.723 219.65 307.691 219.65 307.659C219.65 307.626 219.657 307.594 219.67 307.564C219.683 307.535 219.702 307.508 219.725 307.486C219.749 307.464 219.777 307.446 219.808 307.436C219.838 307.425 219.871 307.42 219.903 307.422H269.797C269.857 307.426 269.913 307.453 269.954 307.497C269.995 307.541 270.018 307.599 270.018 307.659C270.018 307.719 269.995 307.776 269.954 307.82C269.913 307.864 269.857 307.891 269.797 307.895Z" fill="black"/>
<path d="M289.511 314.98H219.905C219.842 314.98 219.782 314.955 219.737 314.911C219.693 314.866 219.668 314.806 219.668 314.744C219.668 314.681 219.693 314.621 219.737 314.576C219.782 314.532 219.842 314.507 219.905 314.507H289.511C289.574 314.507 289.634 314.532 289.678 314.576C289.723 314.621 289.748 314.681 289.748 314.744C289.748 314.806 289.723 314.866 289.678 314.911C289.634 314.955 289.574 314.98 289.511 314.98Z" fill="black"/>
<path d="M282.418 322.065H219.903C219.871 322.067 219.838 322.062 219.808 322.051C219.777 322.041 219.749 322.024 219.725 322.001C219.702 321.979 219.683 321.952 219.67 321.923C219.657 321.893 219.65 321.861 219.65 321.828C219.65 321.796 219.657 321.764 219.67 321.734C219.683 321.704 219.702 321.678 219.725 321.656C219.749 321.633 219.777 321.616 219.808 321.606C219.838 321.595 219.871 321.59 219.903 321.592H282.418C282.451 321.59 282.483 321.595 282.514 321.606C282.544 321.616 282.572 321.633 282.596 321.656C282.62 321.678 282.639 321.704 282.651 321.734C282.664 321.764 282.671 321.796 282.671 321.828C282.671 321.861 282.664 321.893 282.651 321.923C282.639 321.952 282.62 321.979 282.596 322.001C282.572 322.024 282.544 322.041 282.514 322.051C282.483 322.062 282.451 322.067 282.418 322.065Z" fill="black"/>
<path d="M289.51 333.873H257.09C257.058 333.875 257.026 333.871 256.995 333.86C256.964 333.849 256.936 333.832 256.913 333.81C256.889 333.787 256.87 333.761 256.857 333.731C256.844 333.701 256.838 333.669 256.838 333.637C256.838 333.604 256.844 333.572 256.857 333.542C256.87 333.513 256.889 333.486 256.913 333.464C256.936 333.442 256.964 333.425 256.995 333.414C257.026 333.403 257.058 333.398 257.09 333.401H289.507C289.567 333.405 289.623 333.431 289.664 333.475C289.705 333.519 289.728 333.577 289.728 333.637C289.728 333.697 289.705 333.754 289.664 333.798C289.623 333.842 289.567 333.869 289.507 333.873H289.51Z" fill="black"/>
<path d="M289.512 340.957H269.498C269.438 340.953 269.382 340.926 269.341 340.883C269.3 340.839 269.277 340.781 269.277 340.721C269.277 340.661 269.3 340.603 269.341 340.559C269.382 340.516 269.438 340.489 269.498 340.485H289.512C289.572 340.489 289.628 340.516 289.669 340.559C289.71 340.603 289.733 340.661 289.733 340.721C289.733 340.781 289.71 340.839 289.669 340.883C289.628 340.926 289.572 340.953 289.512 340.957Z" fill="black"/>
<path d="M262.406 340.957H219.903C219.871 340.959 219.838 340.955 219.808 340.944C219.777 340.933 219.749 340.916 219.725 340.894C219.702 340.872 219.683 340.845 219.67 340.815C219.657 340.786 219.65 340.753 219.65 340.721C219.65 340.689 219.657 340.657 219.67 340.627C219.683 340.597 219.702 340.57 219.725 340.548C219.749 340.526 219.777 340.509 219.808 340.498C219.838 340.487 219.871 340.483 219.903 340.485H262.406C262.466 340.489 262.522 340.516 262.563 340.559C262.604 340.603 262.626 340.661 262.626 340.721C262.626 340.781 262.604 340.839 262.563 340.883C262.522 340.927 262.466 340.953 262.406 340.957Z" fill="black"/>
<path d="M289.511 348.043H250.608C250.576 348.045 250.543 348.041 250.513 348.03C250.482 348.019 250.454 348.002 250.431 347.98C250.407 347.958 250.388 347.931 250.375 347.901C250.362 347.871 250.355 347.839 250.355 347.807C250.355 347.775 250.362 347.742 250.375 347.713C250.388 347.683 250.407 347.656 250.431 347.634C250.454 347.612 250.482 347.595 250.513 347.584C250.543 347.573 250.576 347.569 250.608 347.571H289.511C289.571 347.575 289.627 347.602 289.668 347.645C289.709 347.689 289.732 347.747 289.732 347.807C289.732 347.867 289.709 347.925 289.668 347.969C289.627 348.012 289.571 348.039 289.511 348.043Z" fill="black"/>
<path d="M243.515 348.043H219.903C219.871 348.045 219.838 348.041 219.808 348.03C219.777 348.019 219.749 348.002 219.725 347.98C219.702 347.958 219.683 347.931 219.67 347.901C219.657 347.871 219.65 347.839 219.65 347.807C219.65 347.775 219.657 347.742 219.67 347.713C219.683 347.683 219.702 347.656 219.725 347.634C219.749 347.612 219.777 347.595 219.808 347.584C219.838 347.573 219.871 347.569 219.903 347.571H243.515C243.548 347.569 243.58 347.573 243.611 347.584C243.641 347.595 243.669 347.612 243.693 347.634C243.716 347.656 243.735 347.683 243.748 347.713C243.761 347.742 243.768 347.775 243.768 347.807C243.768 347.839 243.761 347.871 243.748 347.901C243.735 347.931 243.716 347.958 243.693 347.98C243.669 348.002 243.641 348.019 243.611 348.03C243.58 348.041 243.548 348.045 243.515 348.043Z" fill="black"/>
<path d="M282.418 355.127H219.903C219.871 355.129 219.838 355.124 219.808 355.113C219.777 355.103 219.749 355.086 219.725 355.063C219.702 355.041 219.683 355.014 219.67 354.985C219.657 354.955 219.65 354.923 219.65 354.89C219.65 354.858 219.657 354.826 219.67 354.796C219.683 354.767 219.702 354.74 219.725 354.718C219.749 354.695 219.777 354.678 219.808 354.668C219.838 354.657 219.871 354.652 219.903 354.654H282.418C282.451 354.652 282.483 354.657 282.514 354.668C282.544 354.678 282.572 354.695 282.596 354.718C282.62 354.74 282.639 354.767 282.651 354.796C282.664 354.826 282.671 354.858 282.671 354.89C282.671 354.923 282.664 354.955 282.651 354.985C282.639 355.014 282.62 355.041 282.596 355.063C282.572 355.086 282.544 355.103 282.514 355.113C282.483 355.124 282.451 355.129 282.418 355.127Z" fill="black"/>
<path d="M149.181 286.733C150.743 284.386 152.032 281.485 151.137 278.808C150.193 275.985 146.632 274.374 143.886 275.527C145.043 273.516 145.979 271.385 146.677 269.172C139.163 268.958 131.435 270.282 125.01 274.18C118.586 278.078 113.638 284.8 113.043 292.287C112.794 295.401 113.342 298.69 115.2 301.203C117.15 303.843 120.312 305.337 123.498 306.13C127.646 307.165 132.219 307.135 135.998 305.138C138.549 303.793 140.631 301.445 141.536 298.688C141.767 297.988 141.914 297.263 141.974 296.529C142.016 296 141.748 295.029 141.952 294.557C142.194 294.004 143.226 293.452 143.681 293.049C144.329 292.474 144.954 291.874 145.556 291.25C146.896 289.855 148.109 288.343 149.181 286.733Z" fill="black"/>
<path d="M142.245 286.932C142.199 286.932 142.153 286.918 142.115 286.892C142.076 286.866 142.046 286.829 142.028 286.787C142.01 286.744 142.005 286.696 142.014 286.651C142.023 286.605 142.045 286.563 142.078 286.53C143.664 284.928 144.827 282.958 145.465 280.796C145.472 280.765 145.485 280.735 145.504 280.709C145.523 280.683 145.548 280.661 145.576 280.644C145.604 280.628 145.635 280.617 145.667 280.614C145.699 280.61 145.731 280.612 145.762 280.622C145.793 280.631 145.822 280.646 145.847 280.667C145.872 280.688 145.892 280.713 145.907 280.742C145.921 280.771 145.93 280.803 145.932 280.835C145.933 280.867 145.929 280.9 145.918 280.93C145.258 283.167 144.054 285.205 142.413 286.862C142.391 286.884 142.365 286.902 142.336 286.914C142.307 286.926 142.276 286.932 142.245 286.932Z" fill="black"/>
<path d="M141.553 327.577L137.35 327.12L138.458 312.781C138.458 312.781 134.966 295.306 121.516 308.355L119.053 327.822L115.098 328.319C115.098 328.319 116.704 337.4 127.99 337.375C137.579 337.355 141.722 334.122 141.553 327.577Z" fill="#FFDEC3"/>
<path d="M116.7 328.356C116.639 328.358 116.579 328.336 116.533 328.295C116.487 328.254 116.459 328.197 116.456 328.135C116.452 328.074 116.472 328.013 116.512 327.966C116.552 327.92 116.609 327.891 116.67 327.885L118.841 327.612L121.282 308.327C121.288 308.273 121.313 308.224 121.352 308.186C125.502 304.16 129.155 302.6 132.208 303.55C137.105 305.074 138.627 312.423 138.689 312.736C138.692 312.757 138.692 312.779 138.689 312.8L137.602 326.911L139.851 327.155C139.882 327.158 139.912 327.168 139.939 327.183C139.966 327.198 139.99 327.218 140.009 327.242C140.029 327.266 140.043 327.294 140.052 327.324C140.061 327.353 140.063 327.384 140.06 327.415C140.057 327.446 140.047 327.476 140.032 327.503C140.017 327.53 139.997 327.554 139.973 327.574C139.949 327.593 139.921 327.607 139.891 327.616C139.862 327.625 139.831 327.627 139.8 327.624L137.323 327.355C137.261 327.35 137.204 327.32 137.164 327.273C137.124 327.225 137.104 327.164 137.108 327.103L138.22 312.798C138.113 312.276 136.543 305.393 132.066 304.002C129.204 303.112 125.731 304.615 121.74 308.469L119.287 327.853C119.28 327.905 119.256 327.954 119.219 327.991C119.182 328.028 119.133 328.051 119.081 328.058L116.725 328.353L116.7 328.356Z" fill="black"/>
<path d="M127.744 309.025C129.759 310.751 132.159 312.087 134.766 312.58C137.374 313.074 140.197 312.672 142.409 311.206C146.11 308.752 147.452 303.774 146.8 299.384C146.147 294.994 143.863 291.039 141.591 287.226C141.591 287.226 132.926 293.865 124.966 294.936C123.997 297.34 123.807 299.987 124.422 302.505C124.422 302.505 122.654 300.898 121.032 301.96C119.277 303.103 118.568 305.572 119.416 307.488C120.263 309.404 122.454 310.579 124.539 310.373C125.716 310.254 126.796 310.026 127.744 309.025Z" fill="#FFDEC3"/>
<path d="M136.898 313.018C136.168 313.018 135.439 312.949 134.721 312.813C132.331 312.361 129.926 311.162 127.76 309.346C126.748 310.31 125.583 310.505 124.563 310.605C122.326 310.826 120.071 309.554 119.2 307.58C118.31 305.563 119.073 302.952 120.903 301.758C122.104 300.974 123.374 301.522 124.064 301.951C123.606 299.567 123.843 297.101 124.747 294.847C124.762 294.808 124.788 294.774 124.821 294.748C124.854 294.721 124.893 294.705 124.935 294.699C132.741 293.648 141.361 287.102 141.447 287.037C141.473 287.017 141.503 287.002 141.536 286.994C141.568 286.986 141.602 286.986 141.635 286.992C141.668 286.998 141.699 287.011 141.726 287.031C141.754 287.05 141.776 287.075 141.794 287.103C143.822 290.509 146.347 294.747 147.033 299.348C147.782 304.365 146.016 309.093 142.535 311.401C140.94 312.462 138.964 313.018 136.898 313.018ZM127.743 308.788C127.799 308.788 127.853 308.808 127.896 308.845C130.047 310.689 132.438 311.9 134.809 312.349C137.501 312.859 140.223 312.37 142.276 311.009C146.057 308.502 147.154 303.382 146.56 299.418C145.904 295.009 143.5 290.902 141.516 287.571C140.139 288.584 132.333 294.122 125.131 295.148C124.216 297.472 124.047 300.023 124.647 302.447C124.658 302.496 124.654 302.548 124.634 302.594C124.614 302.64 124.58 302.679 124.537 302.705C124.493 302.731 124.443 302.742 124.393 302.737C124.343 302.732 124.295 302.711 124.258 302.677C124.19 302.617 122.603 301.208 121.152 302.155C119.508 303.226 118.823 305.575 119.623 307.388C120.415 309.181 122.469 310.338 124.507 310.135C125.769 310.011 126.721 309.754 127.566 308.862C127.589 308.838 127.616 308.819 127.647 308.806C127.677 308.794 127.71 308.787 127.743 308.788Z" fill="black"/>
<path d="M126.074 306.923C126.056 306.922 126.038 306.92 126.021 306.916C124.99 306.679 124.004 306.278 123.099 305.73C123.05 305.695 123.016 305.643 123.003 305.584C122.991 305.525 123.001 305.464 123.032 305.413C123.064 305.361 123.113 305.324 123.171 305.307C123.229 305.291 123.291 305.298 123.344 305.326C124.206 305.849 125.146 306.231 126.129 306.458C126.186 306.47 126.236 306.503 126.27 306.551C126.304 306.598 126.32 306.656 126.313 306.714C126.307 306.772 126.279 306.826 126.235 306.865C126.191 306.903 126.135 306.924 126.076 306.924L126.074 306.923Z" fill="black"/>
<path d="M90.8145 441.151L87.9551 455.748L183.396 455.767L169.682 406.961L90.8145 441.151Z" fill="#BDD9C2"/>
<path d="M168.232 372.142C168.232 372.142 204.697 377.687 234.98 349.075C227.75 344.941 223.307 337.535 220.95 327.692C220.95 327.692 208.612 339.703 196.825 339.71C186.598 339.715 164.483 328.874 141.579 327.339C141.127 328.786 140.479 330.184 139.519 331.365C137.666 333.643 134.705 334.899 131.865 335.349C129.11 335.786 126.293 335.631 123.603 334.893C121.208 334.227 118.874 333.014 117.103 331.251C116.3 330.452 115.631 329.529 115.123 328.516C98.5701 329.831 88.1476 331.836 79.4034 342.504C68.1338 356.249 58.7426 382.111 61.4789 398.438C64.2152 414.766 71.7268 419.819 81.3129 422.963L80.893 431.793C80.4282 441.574 90.1107 448.654 99.3005 445.252L175.85 416.915C177.64 416.253 179.102 414.919 179.924 413.196C180.746 411.473 180.864 409.498 180.252 407.689L168.232 372.142Z" fill="#5E68FD"/>
<path d="M168.05 371.67C168.001 371.67 167.952 371.654 167.912 371.625C167.872 371.596 167.842 371.556 167.826 371.509L165.768 365.349C165.758 365.32 165.754 365.289 165.756 365.258C165.758 365.227 165.767 365.196 165.78 365.169C165.794 365.141 165.813 365.116 165.837 365.096C165.86 365.076 165.887 365.06 165.917 365.05C165.946 365.04 165.977 365.036 166.008 365.039C166.039 365.041 166.069 365.049 166.097 365.063C166.125 365.077 166.149 365.096 166.17 365.119C166.19 365.142 166.206 365.17 166.215 365.199L168.275 371.359C168.295 371.419 168.29 371.483 168.262 371.539C168.234 371.596 168.184 371.638 168.125 371.658C168.101 371.666 168.076 371.67 168.05 371.67Z" fill="black"/>
<path d="M221.657 327.408C231.81 318.142 241.142 307.765 252.831 300.527C253.86 299.89 254.952 299.262 256.159 299.16C257.366 299.059 258.715 299.636 259.124 300.775C259.533 301.915 258.892 303.175 258.205 304.189C256.044 307.376 252.889 310.669 249.653 312.757C249.653 312.757 255.008 313.577 254.732 318.612C254.732 318.612 257.89 319.174 256.459 325.26C256.459 325.26 258.25 330.026 253.983 332.692C250.914 334.608 248.894 333.847 248.894 333.847C248.894 333.847 238.63 346.681 231.944 351.081C225.258 355.48 216.19 332.396 221.657 327.408Z" fill="#FFDEC3"/>
<path d="M233.763 350.235C233.73 350.235 233.697 350.228 233.666 350.214C233.636 350.201 233.609 350.18 233.587 350.155C233.545 350.109 233.524 350.047 233.528 349.985C233.532 349.922 233.56 349.864 233.607 349.822C239.747 344.374 248.623 333.804 248.707 333.698C248.739 333.661 248.781 333.635 248.828 333.622C248.875 333.61 248.925 333.613 248.971 333.63C248.99 333.636 250.934 334.317 253.852 332.494C257.901 329.966 256.303 325.533 256.233 325.347C256.216 325.303 256.213 325.256 256.223 325.21C256.937 322.18 256.47 320.605 255.952 319.822C255.401 318.983 254.692 318.85 254.684 318.847C254.627 318.838 254.576 318.807 254.54 318.762C254.505 318.717 254.487 318.66 254.491 318.602C254.75 313.845 249.821 313.026 249.611 312.994C249.565 312.986 249.521 312.964 249.487 312.932C249.453 312.899 249.43 312.857 249.42 312.811C249.41 312.765 249.414 312.716 249.432 312.673C249.449 312.629 249.48 312.591 249.519 312.565C252.546 310.612 255.718 307.433 258.003 304.063C258.576 303.217 259.288 301.966 258.896 300.861C258.514 299.796 257.21 299.315 256.173 299.402C255.026 299.499 253.994 300.088 252.949 300.733C244.269 306.107 236.159 313.888 228.318 321.411C226.069 323.568 223.946 325.605 221.813 327.583C221.79 327.604 221.763 327.621 221.734 327.631C221.705 327.642 221.674 327.647 221.643 327.646C221.581 327.644 221.522 327.617 221.479 327.571C221.437 327.525 221.414 327.464 221.416 327.401C221.418 327.339 221.446 327.28 221.491 327.237C223.622 325.261 225.744 323.225 227.99 321.071C235.852 313.529 243.98 305.732 252.702 300.332C253.754 299.682 254.885 299.037 256.129 298.932C257.374 298.827 258.87 299.401 259.342 300.701C259.814 302.001 259.021 303.397 258.395 304.327C256.191 307.578 253.171 310.655 250.236 312.657C251.613 313.035 255.084 314.393 254.97 318.44C255.541 318.653 256.025 319.048 256.349 319.564C257.167 320.808 257.286 322.722 256.7 325.253C256.902 325.869 258.199 330.34 254.103 332.896C251.425 334.565 249.526 334.266 248.97 334.122C247.967 335.31 239.728 345.02 233.917 350.177C233.874 350.214 233.82 350.234 233.763 350.235Z" fill="black"/>
<path d="M246.402 330.269C245.695 330.282 245.003 330.066 244.429 329.652C244.118 329.407 243.865 329.096 243.687 328.742C243.51 328.387 243.413 327.998 243.403 327.601C243.383 326.899 243.636 326.289 244.117 325.888C244.14 325.868 244.168 325.853 244.197 325.843C244.227 325.834 244.258 325.831 244.289 325.833C244.32 325.836 244.35 325.845 244.377 325.859C244.405 325.873 244.429 325.893 244.449 325.916C244.469 325.94 244.484 325.967 244.494 325.997C244.503 326.026 244.507 326.058 244.504 326.088C244.501 326.119 244.493 326.149 244.478 326.177C244.464 326.204 244.445 326.229 244.421 326.249C244.052 326.558 243.86 327.035 243.876 327.591C243.883 327.916 243.961 328.236 244.106 328.527C244.25 328.818 244.457 329.074 244.712 329.276C245.73 330.039 247.188 329.863 248.181 329.351C249.298 328.777 250.169 327.767 250.944 326.763C251.96 325.447 253.209 323.672 253.853 321.622C254.075 320.922 254.213 320.197 254.263 319.464C254.263 319.432 254.27 319.4 254.283 319.37C254.296 319.34 254.314 319.314 254.338 319.292C254.362 319.27 254.39 319.253 254.42 319.242C254.451 319.231 254.483 319.226 254.516 319.229C254.548 319.231 254.58 319.24 254.608 319.254C254.637 319.269 254.663 319.29 254.683 319.315C254.703 319.34 254.719 319.369 254.727 319.401C254.736 319.432 254.738 319.464 254.734 319.496C254.682 320.267 254.538 321.028 254.306 321.764C253.64 323.882 252.361 325.7 251.321 327.049C250.511 328.096 249.598 329.151 248.399 329.768C247.783 330.091 247.098 330.263 246.402 330.269Z" fill="black"/>
<path d="M237.002 327.59C236.094 327.59 235.192 327.222 234.77 326.399C234.753 326.371 234.743 326.34 234.739 326.308C234.734 326.276 234.737 326.243 234.746 326.212C234.755 326.181 234.77 326.152 234.791 326.127C234.811 326.102 234.837 326.081 234.866 326.067C234.895 326.052 234.926 326.043 234.959 326.041C234.991 326.039 235.024 326.044 235.054 326.055C235.085 326.066 235.113 326.083 235.136 326.106C235.16 326.128 235.178 326.155 235.191 326.185C235.675 327.129 237.071 327.324 238.071 326.914C238.981 326.54 239.715 325.805 240.427 325.094C240.551 324.969 240.674 324.845 240.8 324.723C241.608 323.931 242.707 323.01 244.036 322.929C244.786 322.885 245.503 323.112 246.199 323.333C246.94 323.569 247.641 323.791 248.353 323.694C249.046 323.601 249.664 323.177 250.092 322.501C250.361 322.075 250.536 321.597 250.606 321.099C250.676 320.6 250.639 320.092 250.497 319.609C249.854 317.587 247.803 316.487 246.634 316.013C244.515 315.152 242.198 314.892 239.941 315.263C239.879 315.274 239.816 315.259 239.765 315.222C239.714 315.186 239.679 315.131 239.669 315.069C239.659 315.007 239.674 314.944 239.71 314.893C239.747 314.842 239.802 314.808 239.864 314.798C242.207 314.415 244.611 314.687 246.811 315.583C248.056 316.089 250.25 317.268 250.947 319.475C251.108 320.024 251.15 320.6 251.071 321.165C250.992 321.731 250.794 322.274 250.49 322.757C249.985 323.553 249.248 324.053 248.415 324.165C247.582 324.278 246.809 324.027 246.059 323.786C245.375 323.572 244.728 323.366 244.067 323.405C242.895 323.475 241.883 324.329 241.134 325.064C241.009 325.185 240.887 325.308 240.764 325.431C240.021 326.181 239.252 326.945 238.254 327.359C237.855 327.516 237.43 327.594 237.002 327.59Z" fill="black"/>
<path d="M248.03 332.817C247.586 332.821 247.144 332.735 246.734 332.564C245.838 332.18 245.215 331.33 245.182 330.448C245.18 330.386 245.202 330.325 245.245 330.279C245.287 330.233 245.346 330.206 245.409 330.203C245.44 330.202 245.471 330.206 245.5 330.217C245.529 330.228 245.556 330.244 245.579 330.265C245.602 330.286 245.62 330.312 245.633 330.34C245.646 330.368 245.653 330.399 245.654 330.43C245.68 331.133 246.19 331.816 246.92 332.13C247.572 332.41 248.383 332.418 249.205 332.151C250.001 331.893 250.723 331.416 251.325 330.984C253.332 329.539 254.706 328.035 255.525 326.388C255.539 326.361 255.558 326.336 255.582 326.315C255.606 326.295 255.633 326.28 255.663 326.27C255.692 326.26 255.723 326.257 255.754 326.259C255.786 326.261 255.816 326.27 255.844 326.284C255.871 326.298 255.896 326.317 255.916 326.341C255.937 326.365 255.952 326.392 255.962 326.422C255.971 326.451 255.975 326.482 255.973 326.513C255.971 326.544 255.962 326.575 255.948 326.602C255.091 328.316 253.671 329.88 251.6 331.369C250.969 331.824 250.208 332.326 249.351 332.604C248.925 332.744 248.479 332.815 248.03 332.817Z" fill="black"/>
<path d="M248.764 333.855C248.702 333.855 248.642 333.83 248.597 333.786C248.315 333.504 248.089 333.172 247.93 332.806C247.915 332.751 247.921 332.693 247.945 332.642C247.969 332.591 248.011 332.55 248.063 332.527C248.115 332.505 248.173 332.501 248.228 332.518C248.282 332.534 248.328 332.57 248.358 332.617C248.494 332.928 248.687 333.211 248.926 333.452C248.959 333.485 248.981 333.527 248.991 333.573C249 333.619 248.995 333.666 248.977 333.709C248.959 333.752 248.929 333.789 248.89 333.815C248.851 333.841 248.806 333.855 248.759 333.855H248.764Z" fill="black"/>
<path d="M169.4 345.594H130.82C130.552 345.594 130.291 345.681 130.076 345.841C129.861 346.002 129.704 346.227 129.627 346.484L114.969 395.831C114.914 396.017 114.903 396.213 114.937 396.404C114.971 396.594 115.05 396.775 115.166 396.93C115.282 397.085 115.432 397.211 115.605 397.297C115.779 397.384 115.97 397.429 116.163 397.429H154.743C155.011 397.429 155.272 397.343 155.487 397.182C155.702 397.022 155.86 396.796 155.936 396.539L170.593 347.192C170.648 347.006 170.659 346.81 170.625 346.62C170.592 346.429 170.514 346.249 170.398 346.094C170.282 345.939 170.131 345.813 169.958 345.726C169.785 345.639 169.594 345.594 169.4 345.594Z" fill="black"/>
<path d="M149.588 384.026C151.245 382.43 152.258 380.695 151.194 378.993C150.131 377.291 147.475 376.897 145.966 378.214C147.084 377.335 148.232 376.421 148.912 375.172C149.592 373.923 149.684 372.241 148.747 371.172C147.924 370.232 146.511 369.994 145.29 370.268C144.692 370.411 144.116 370.632 143.577 370.926C144.112 370.13 144.252 369.007 143.804 368.141C143.038 366.658 141.167 366.024 139.506 366.213C137.845 366.403 136.34 367.238 134.886 368.06C125.152 373.535 105.917 384.659 105.917 384.659C105.41 387.426 115.546 409.706 119.381 413.428C121.862 412.684 140.458 397.792 147.505 391.757C148.683 390.743 149.903 389.671 150.503 388.235C151.104 386.799 150.882 384.892 149.588 384.026Z" fill="#FFDEC3"/>
<path d="M132.159 378.554C132.108 378.554 132.058 378.538 132.016 378.507C131.975 378.476 131.945 378.432 131.931 378.382C131.917 378.333 131.919 378.28 131.938 378.232C131.957 378.184 131.991 378.143 132.035 378.117C135.595 375.928 139.158 373.64 142.625 371.316C142.677 371.283 142.74 371.272 142.8 371.285C142.86 371.298 142.913 371.334 142.947 371.385C142.982 371.436 142.995 371.498 142.984 371.559C142.973 371.62 142.938 371.673 142.888 371.709C139.415 374.035 135.848 376.327 132.286 378.519C132.248 378.543 132.204 378.554 132.159 378.554Z" fill="black"/>
<path d="M136.669 385.224C136.619 385.224 136.571 385.208 136.53 385.178C136.49 385.149 136.46 385.107 136.445 385.06C136.429 385.012 136.43 384.961 136.445 384.913C136.461 384.866 136.491 384.825 136.531 384.795L145.719 378.233C145.77 378.196 145.833 378.182 145.895 378.192C145.956 378.202 146.011 378.236 146.048 378.287C146.084 378.338 146.099 378.401 146.088 378.463C146.078 378.525 146.044 378.58 145.993 378.616L136.805 385.181C136.766 385.209 136.718 385.224 136.669 385.224Z" fill="black"/>
<path d="M140.975 390.697C140.925 390.696 140.877 390.68 140.837 390.65C140.797 390.62 140.768 390.579 140.753 390.531C140.738 390.484 140.739 390.432 140.755 390.385C140.771 390.338 140.802 390.297 140.842 390.269C143.632 388.382 146.365 386.342 148.969 384.205C149.018 384.169 149.078 384.154 149.138 384.162C149.198 384.169 149.252 384.2 149.291 384.246C149.329 384.293 149.348 384.352 149.344 384.413C149.34 384.473 149.313 384.529 149.269 384.57C146.654 386.712 143.908 388.765 141.107 390.659C141.068 390.685 141.022 390.698 140.975 390.697Z" fill="black"/>
<path d="M89.8316 424.343C87.2523 424.346 84.6769 424.141 82.1305 423.731C82.0707 423.718 82.018 423.684 81.9833 423.633C81.9487 423.583 81.9347 423.522 81.9444 423.461C81.9541 423.401 81.9866 423.347 82.0352 423.31C82.0839 423.273 82.1448 423.257 82.2054 423.264C95.0814 425.357 108.491 422.126 118.999 414.402C119.05 414.368 119.111 414.356 119.171 414.367C119.231 414.377 119.284 414.411 119.32 414.46C119.356 414.508 119.371 414.569 119.364 414.63C119.356 414.69 119.325 414.745 119.278 414.783C114.109 418.583 107.994 421.407 101.595 422.948C97.7423 423.874 93.794 424.342 89.8316 424.343Z" fill="black"/>
<path d="M84.2033 397.493C84.1513 397.493 84.1007 397.475 84.0595 397.444C84.0182 397.412 83.9885 397.368 83.9749 397.318C83.9614 397.267 83.9648 397.214 83.9846 397.166C84.0044 397.118 84.0395 397.078 84.0844 397.051L104.728 385.132C104.755 385.116 104.784 385.106 104.815 385.102C104.846 385.098 104.877 385.1 104.907 385.108C104.937 385.116 104.965 385.13 104.99 385.149C105.014 385.168 105.035 385.192 105.05 385.218C105.066 385.245 105.076 385.275 105.08 385.306C105.084 385.336 105.082 385.368 105.074 385.398C105.066 385.428 105.052 385.456 105.033 385.48C105.014 385.505 104.99 385.525 104.964 385.541L84.3211 397.46C84.2853 397.481 84.2447 397.492 84.2033 397.493Z" fill="black"/>
<path d="M90.8143 392.202C90.7986 392.203 90.7829 392.203 90.7672 392.202C90.7367 392.195 90.7078 392.183 90.6821 392.166C90.6563 392.148 90.6343 392.126 90.6172 392.1C90.6001 392.074 90.5882 392.045 90.5824 392.015C90.5765 391.984 90.5767 391.953 90.583 391.922L96.1401 364.837C96.1446 364.805 96.1556 364.774 96.1724 364.746C96.1893 364.719 96.2116 364.695 96.2381 364.676C96.2645 364.657 96.2945 364.644 96.3262 364.638C96.3579 364.631 96.3906 364.631 96.4223 364.638C96.454 364.644 96.484 364.657 96.5105 364.676C96.537 364.694 96.5594 364.718 96.5763 364.746C96.5932 364.773 96.6043 364.804 96.6089 364.836C96.6134 364.868 96.6113 364.901 96.6028 364.932L91.0456 392.017C91.0339 392.07 91.0045 392.117 90.9625 392.15C90.9204 392.184 90.8681 392.202 90.8143 392.202Z" fill="black"/>
<path d="M180.257 446.238C180.205 446.237 180.154 446.22 180.113 446.189C180.072 446.157 180.042 446.113 180.029 446.063L170.243 409.871C170.231 409.812 170.242 409.751 170.273 409.699C170.305 409.648 170.355 409.61 170.413 409.595C170.472 409.579 170.534 409.586 170.587 409.615C170.64 409.643 170.68 409.691 170.699 409.748L180.485 445.94C180.493 445.97 180.495 446.001 180.491 446.032C180.487 446.062 180.477 446.092 180.462 446.119C180.446 446.146 180.426 446.169 180.401 446.188C180.377 446.207 180.349 446.221 180.319 446.229C180.299 446.235 180.278 446.238 180.257 446.238Z" fill="black"/>
<path d="M334.907 373.984H327.712C324.309 373.984 320.915 373.639 317.581 372.954L291.527 367.608C285.43 366.355 279.14 366.363 273.046 367.63L247.417 372.939C244.053 373.636 240.627 373.988 237.192 373.989H229.887C229.887 372.203 231.181 370.755 232.778 370.755H236.062C240.254 370.753 244.417 370.051 248.378 368.678L270.216 361.138C278.043 358.42 286.555 358.407 294.389 361.102L316.649 368.715C320.579 370.064 324.704 370.753 328.858 370.755H332.03C333.612 370.751 334.907 372.199 334.907 373.984Z" fill="white"/>
<path d="M334.91 374.221H327.716C324.298 374.219 320.889 373.872 317.542 373.185L291.483 367.844C285.419 366.593 279.163 366.599 273.102 367.863L247.473 373.171C244.093 373.872 240.651 374.225 237.199 374.226H229.89C229.827 374.226 229.767 374.201 229.723 374.156C229.679 374.112 229.654 374.052 229.654 373.989C229.654 372.077 231.057 370.52 232.781 370.52H236.065C240.23 370.517 244.365 369.82 248.299 368.456L270.137 360.916C278.011 358.17 286.581 358.158 294.463 360.88L316.719 368.487C320.622 369.827 324.719 370.512 328.845 370.514H332.018C333.742 370.514 335.145 372.071 335.145 373.984C335.145 374.046 335.12 374.106 335.076 374.151C335.032 374.195 334.973 374.22 334.91 374.221ZM282.334 366.433C285.439 366.434 288.536 366.751 291.578 367.376L317.632 372.723C320.95 373.404 324.328 373.747 327.716 373.748H334.666C334.559 372.205 333.412 370.987 332.019 370.987H328.845C324.667 370.984 320.517 370.291 316.565 368.934L294.304 361.321C286.521 358.633 278.06 358.646 270.285 361.357L248.446 368.897C244.462 370.278 240.275 370.985 236.059 370.987H232.781C231.389 370.987 230.241 372.205 230.134 373.748H237.202C240.62 373.747 244.029 373.397 247.376 372.703L273.004 367.395C276.073 366.756 279.199 366.434 282.334 366.433Z" fill="black"/>
<path d="M283.843 444.748H280.951V345.391C280.951 345.007 281.103 344.639 281.375 344.368C281.646 344.097 282.014 343.945 282.397 343.945C282.78 343.945 283.148 344.097 283.419 344.368C283.69 344.639 283.843 345.007 283.843 345.391V444.748Z" fill="white"/>
<path d="M283.839 444.985H280.948C280.917 444.985 280.886 444.979 280.857 444.967C280.828 444.955 280.802 444.938 280.78 444.916C280.758 444.894 280.741 444.868 280.729 444.839C280.717 444.81 280.711 444.78 280.711 444.748V345.391C280.711 344.945 280.888 344.518 281.203 344.202C281.519 343.887 281.946 343.71 282.392 343.71C282.838 343.71 283.266 343.887 283.581 344.202C283.897 344.518 284.074 344.945 284.074 345.391V444.748C284.074 444.811 284.049 444.871 284.005 444.915C283.961 444.959 283.902 444.985 283.839 444.985ZM281.185 444.513H283.604V345.391C283.604 345.071 283.476 344.763 283.249 344.536C283.023 344.31 282.715 344.182 282.394 344.182C282.074 344.182 281.766 344.31 281.54 344.536C281.313 344.763 281.185 345.071 281.185 345.391V444.513Z" fill="black"/>
<path d="M308.412 452.568H256.381C257.839 446.827 262.526 442.865 267.86 442.865H296.93C302.267 442.865 306.953 446.827 308.412 452.568Z" fill="white"/>
<path d="M308.412 452.804H256.381C256.345 452.804 256.309 452.796 256.277 452.78C256.245 452.764 256.216 452.741 256.194 452.713C256.172 452.684 256.157 452.651 256.15 452.616C256.142 452.581 256.143 452.544 256.152 452.509C257.629 446.692 262.444 442.629 267.861 442.629H296.93C302.347 442.629 307.162 446.692 308.64 452.509C308.648 452.544 308.649 452.581 308.642 452.616C308.634 452.651 308.619 452.684 308.597 452.713C308.575 452.741 308.547 452.764 308.515 452.78C308.483 452.796 308.447 452.804 308.412 452.804ZM256.685 452.332H308.101C306.592 446.882 302.036 443.101 296.928 443.101H267.861C262.753 443.101 258.197 446.881 256.688 452.332H256.685Z" fill="black"/>
<path d="M252.259 448.38H312.534C313.702 448.38 314.822 448.844 315.648 449.669C316.474 450.495 316.938 451.615 316.938 452.783V455.747H247.855V452.783C247.855 451.615 248.319 450.495 249.145 449.669C249.971 448.844 251.091 448.38 252.259 448.38Z" fill="white"/>
<path d="M316.937 455.983H247.855C247.824 455.983 247.793 455.977 247.764 455.965C247.736 455.953 247.71 455.936 247.688 455.914C247.666 455.892 247.649 455.866 247.637 455.837C247.625 455.808 247.619 455.778 247.619 455.747V452.784C247.62 451.554 248.109 450.375 248.979 449.505C249.849 448.635 251.028 448.145 252.258 448.144H312.534C313.764 448.145 314.943 448.635 315.813 449.505C316.683 450.375 317.172 451.554 317.173 452.784V455.747C317.173 455.778 317.167 455.808 317.155 455.837C317.143 455.866 317.126 455.892 317.104 455.914C317.082 455.936 317.056 455.953 317.028 455.965C316.999 455.977 316.968 455.983 316.937 455.983ZM248.095 455.511H316.704V452.784C316.702 451.68 316.262 450.621 315.481 449.84C314.7 449.059 313.641 448.619 312.537 448.616H252.258C251.154 448.619 250.095 449.059 249.314 449.84C248.533 450.621 248.094 451.68 248.091 452.784L248.095 455.511Z" fill="black"/>
<path d="M354.775 403.219C354.775 404.212 347.549 410.531 334.541 410.531C321.368 410.531 314.307 404.213 314.307 403.219C314.307 402.225 323.366 401.423 334.541 401.423C345.716 401.423 354.775 402.227 354.775 403.219Z" fill="white"/>
<path d="M334.54 410.767C327.486 410.767 322.402 408.968 319.379 407.459C315.961 405.752 314.07 403.869 314.07 403.219C314.07 402.907 314.07 402.255 320.211 401.719C324.04 401.379 329.129 401.191 334.54 401.191C339.952 401.191 345.036 401.379 348.869 401.719C355.01 402.265 355.01 402.912 355.01 403.219C355.01 404.403 347.633 410.767 334.54 410.767ZM314.544 403.234C314.664 404.08 321.535 410.294 334.54 410.294C347.499 410.294 354.405 404.083 354.536 403.233C354.108 402.59 346.801 401.658 334.54 401.658C322.28 401.658 314.966 402.586 314.544 403.234Z" fill="black"/>
<path d="M334.541 405.016C345.716 405.016 354.776 404.211 354.776 403.219C354.776 402.226 345.716 401.422 334.541 401.422C323.366 401.422 314.307 402.226 314.307 403.219C314.307 404.211 323.366 405.016 334.541 405.016Z" fill="white"/>
<path d="M334.54 405.252C329.129 405.252 324.04 405.065 320.211 404.724C314.07 404.179 314.07 403.531 314.07 403.219C314.07 402.906 314.07 402.255 320.211 401.719C324.04 401.379 329.129 401.191 334.54 401.191C339.952 401.191 345.036 401.379 348.869 401.719C355.01 402.265 355.01 402.912 355.01 403.219C355.01 403.525 355.01 404.183 348.869 404.724C345.04 405.065 339.952 405.252 334.54 405.252ZM314.554 403.218C315.073 403.86 322.367 404.779 334.54 404.779C346.714 404.779 354.007 403.865 354.526 403.218C354.007 402.575 346.708 401.657 334.54 401.657C322.372 401.657 315.073 402.573 314.554 403.219V403.218Z" fill="black"/>
<path d="M315.541 400.508C315.497 400.508 315.454 400.496 315.417 400.473C315.38 400.45 315.35 400.417 315.33 400.378C315.311 400.34 315.302 400.296 315.306 400.253C315.309 400.209 315.324 400.167 315.35 400.132L334.717 373.842C334.739 373.812 334.767 373.787 334.8 373.771C334.833 373.754 334.87 373.745 334.907 373.745C334.944 373.745 334.98 373.754 335.013 373.77C335.046 373.787 335.075 373.811 335.097 373.84L354.267 399.771C354.288 399.796 354.303 399.825 354.312 399.856C354.322 399.887 354.324 399.919 354.321 399.951C354.317 399.983 354.306 400.014 354.29 400.042C354.274 400.07 354.252 400.094 354.226 400.113C354.2 400.133 354.17 400.146 354.139 400.153C354.108 400.161 354.075 400.162 354.043 400.156C354.012 400.15 353.981 400.138 353.954 400.12C353.928 400.102 353.905 400.079 353.887 400.052L334.903 374.379L315.726 400.411C315.705 400.44 315.677 400.464 315.645 400.481C315.613 400.498 315.577 400.507 315.541 400.508Z" fill="black"/>
<path d="M249.783 403.219C249.783 404.212 242.557 410.531 229.549 410.531C216.377 410.531 209.315 404.213 209.315 403.219C209.315 402.225 218.374 401.423 229.549 401.423C240.724 401.423 249.783 402.227 249.783 403.219Z" fill="white"/>
<path d="M229.549 410.767C222.495 410.767 217.411 408.968 214.388 407.459C210.969 405.752 209.078 403.869 209.078 403.219C209.078 402.907 209.078 402.255 215.22 401.719C219.049 401.379 224.138 401.191 229.549 401.191C234.961 401.191 240.045 401.379 243.877 401.719C250.019 402.265 250.019 402.912 250.019 403.219C250.023 404.403 242.642 410.767 229.549 410.767ZM209.553 403.234C209.671 404.08 216.544 410.294 229.549 410.294C242.508 410.294 249.413 404.083 249.545 403.233C249.117 402.59 241.809 401.658 229.549 401.658C217.289 401.658 209.975 402.586 209.553 403.234Z" fill="black"/>
<path d="M229.549 405.016C240.724 405.016 249.784 404.211 249.784 403.219C249.784 402.226 240.724 401.422 229.549 401.422C218.374 401.422 209.315 402.226 209.315 403.219C209.315 404.211 218.374 405.016 229.549 405.016Z" fill="white"/>
<path d="M229.549 405.252C224.138 405.252 219.054 405.065 215.22 404.724C209.078 404.179 209.078 403.531 209.078 403.219C209.078 402.906 209.078 402.255 215.22 401.719C219.049 401.379 224.138 401.191 229.549 401.191C234.961 401.191 240.045 401.379 243.877 401.719C250.019 402.265 250.019 402.912 250.019 403.219C250.019 403.525 250.019 404.183 243.877 404.724C240.049 405.065 234.96 405.252 229.549 405.252ZM209.562 403.218C210.082 403.86 217.38 404.779 229.549 404.779C241.718 404.779 249.016 403.864 249.535 403.218C249.016 402.575 241.717 401.657 229.549 401.657C217.381 401.657 210.082 402.573 209.562 403.219V403.218Z" fill="black"/>
<path d="M210.548 400.508C210.498 400.508 210.449 400.492 210.409 400.462C210.384 400.444 210.363 400.421 210.347 400.394C210.331 400.368 210.32 400.338 210.315 400.308C210.311 400.277 210.312 400.246 210.319 400.216C210.327 400.185 210.34 400.157 210.358 400.132L229.725 373.842C229.747 373.812 229.776 373.787 229.809 373.77C229.842 373.754 229.878 373.745 229.915 373.745C229.952 373.745 229.988 373.754 230.022 373.77C230.055 373.787 230.083 373.811 230.106 373.84L249.276 399.771C249.294 399.796 249.307 399.824 249.315 399.854C249.322 399.885 249.324 399.916 249.319 399.946C249.315 399.977 249.304 400.006 249.288 400.033C249.272 400.06 249.251 400.083 249.226 400.101C249.201 400.12 249.173 400.133 249.143 400.14C249.113 400.148 249.082 400.149 249.051 400.145C249.021 400.14 248.991 400.13 248.965 400.114C248.938 400.098 248.915 400.077 248.897 400.052L229.912 374.379L210.739 400.414C210.717 400.443 210.688 400.467 210.655 400.484C210.622 400.5 210.585 400.509 210.548 400.508Z" fill="black"/>
</g>
<defs>
<clipPath id="clip0_16_12">
<rect width="377" height="480" rx="32" fill="white"/>
</clipPath>
</defs>
</svg>
