<svg width="30" height="30" viewBox="0 0 30 30" fill="none" xmlns="http://www.w3.org/2000/svg">
<path d="M15 29.0625C22.7665 29.0625 29.0625 22.7665 29.0625 15C29.0625 7.2335 22.7665 0.9375 15 0.9375C7.2335 0.9375 0.9375 7.2335 0.9375 15C0.9375 22.7665 7.2335 29.0625 15 29.0625Z" fill="#2A5F9E"/>
<path d="M15 5.53125L15.3281 6.5625H16.4062L15.5625 7.21875L15.8906 8.25L15 7.59375L14.1094 8.25L14.4375 7.21875L13.5938 6.5625H14.6719L15 5.53125Z" fill="#FFCE31"/>
<path d="M15 21.4688L15.3281 22.5H16.4062L15.5625 23.1094L15.8906 24.1875L15 23.5313L14.1094 24.1875L14.4375 23.1094L13.5938 22.5H14.6719L15 21.4688Z" fill="#FFCE31"/>
<path d="M18.9375 20.1562L19.2656 21.1875H20.3906L19.5 21.8437L19.8281 22.875L18.9375 22.2188L18.0469 22.875L18.4219 21.8437L17.5312 21.1875H18.6094L18.9375 20.1562Z" fill="#FFCE31"/>
<path d="M21.6563 17.4375L21.9844 18.4688H23.1094L22.2188 19.125L22.5469 20.1562L21.6563 19.5L20.7656 20.1562L21.1406 19.125L20.25 18.4688H21.3281L21.6563 17.4375Z" fill="#FFCE31"/>
<path d="M22.9687 13.5L23.2969 14.5313H24.375L23.4844 15.1875L23.8125 16.2187L22.9687 15.5625L22.0781 16.2187L22.4062 15.1875L21.5156 14.5313H22.5937L22.9687 13.5Z" fill="#FFCE31"/>
<path d="M21.6563 9.51562L21.9844 10.5938H23.1094L22.2188 11.2031L22.5469 12.2344L21.6563 11.625L20.7656 12.2344L21.1406 11.2031L20.25 10.5938H21.3281L21.6563 9.51562Z" fill="#FFCE31"/>
<path d="M18.9375 6.79688L19.2656 7.875H20.3906L19.5 8.48438L19.8281 9.51562L18.9375 8.90625L18.0469 9.51562L18.4219 8.48438L17.5312 7.875H18.6094L18.9375 6.79688Z" fill="#FFCE31"/>
<path d="M11.0625 20.1562L10.7344 21.1875H9.60938L10.5 21.8437L10.1719 22.875L11.0625 22.2188L11.9531 22.875L11.5781 21.8437L12.4688 21.1875H11.3906L11.0625 20.1562Z" fill="#FFCE31"/>
<path d="M8.34375 17.4375L8.01563 18.4688H6.89062L7.78125 19.125L7.45312 20.1562L8.34375 19.5L9.23438 20.1562L8.85938 19.125L9.75 18.4688H8.67188L8.34375 17.4375Z" fill="#FFCE31"/>
<path d="M7.03125 13.5L6.70312 14.5313H5.625L6.51562 15.1875L6.1875 16.2187L7.03125 15.5625L7.92187 16.2187L7.59375 15.1875L8.48438 14.5313H7.40625L7.03125 13.5Z" fill="#FFCE31"/>
<path d="M8.34375 9.51562L8.01563 10.5938H6.89062L7.78125 11.2031L7.45312 12.2344L8.34375 11.625L9.23438 12.2344L8.85938 11.2031L9.75 10.5938H8.67188L8.34375 9.51562Z" fill="#FFCE31"/>
<path d="M11.0625 6.79688L10.7344 7.875H9.60938L10.5 8.48438L10.1719 9.51562L11.0625 8.90625L11.9531 9.51562L11.5781 8.48438L12.4688 7.875H11.3906L11.0625 6.79688Z" fill="#FFCE31"/>
</svg>
