<svg width="64" height="65" viewBox="0 0 64 65" fill="none" xmlns="http://www.w3.org/2000/svg">
<path d="M22 60.3864V46.5864L11.7 54.1864C14.6 56.8864 18.1 58.9864 22 60.3864ZM42 60.3864C45.9 58.9864 49.4 56.8864 52.3 54.1864L42 46.4864V60.3864ZM3.70001 42.0864C4.00001 43.0864 4.40001 43.9864 4.90001 44.9864L8.80001 42.0864H3.70001ZM55.2 42.0864L59.1 44.9864C59.5 44.0864 59.9 43.0864 60.3 42.0864H55.2Z" fill="#2A5F9E"/>
<path d="M23.5 38.0864H2.59998C2.89998 39.4864 3.29998 40.7864 3.69998 42.0864H8.79998L4.89998 44.9864C5.69998 46.6864 6.59998 48.1864 7.69998 49.6864L18 42.0864H22V44.0864L10.3 52.6864L11.7 54.0864L22 46.5864V60.3864C23.3 60.8864 24.6 61.1864 26 61.4864V38.0864H23.5ZM61.4 38.0864H38V61.4864C39.4 61.1864 40.7 60.7864 42 60.3864V46.5864L52.3 54.0864C53.7 52.7864 54.9 51.3864 56.1 49.8864L45.4 42.0864H52.2L58.3 46.5864C58.6 46.0864 58.9 45.4864 59.1 44.9864L55.2 42.0864H60.3C60.7 40.7864 61.1 39.4864 61.4 38.0864Z" fill="white"/>
<path d="M7.70001 49.6864C8.50001 50.7864 9.30001 51.7864 10.2 52.7864L22 44.1864V42.1864H18L7.70001 49.6864ZM45.5 42.0864L56.2 49.8864C56.6 49.3864 56.9 48.8864 57.3 48.3864C57.4 48.2864 57.4 48.1864 57.5 48.1864C57.8 47.6864 58.2 47.0864 58.5 46.5864L52.2 42.0864H45.5Z" fill="#ED4C5C"/>
<path d="M42 3.78644V17.5864L52.3 9.98644C49.4 7.28644 45.9 5.18644 42 3.78644ZM22 3.78644C18.1 5.18644 14.6 7.28644 11.7 9.98644L22 17.6864V3.78644ZM60.3 22.0864C60 21.0864 59.6 20.1864 59.1 19.1864L55.2 22.0864H60.3ZM8.80001 22.0864L4.90001 19.1864C4.50001 20.1864 4.10001 21.0864 3.70001 22.0864H8.80001Z" fill="#2A5F9E"/>
<path d="M40.5 26.0864H61.3C61 24.6864 60.6 23.3864 60.2 22.0864H55.1L59 19.1864C58.2 17.4864 57.3 15.9864 56.2 14.4864L46 22.0864H42V20.0864L53.7 11.4864L52.3 10.0864L42 17.5864V3.7864C40.7 3.2864 39.4 2.9864 38 2.6864V26.0864H40.5ZM2.59998 26.0864H26V2.6864C24.6 2.9864 23.3 3.3864 22 3.7864V17.5864L11.7 10.0864C10.3 11.3864 9.09998 12.7864 7.89998 14.2864L18.6 22.0864H11.8L5.69998 17.5864C5.39998 18.0864 5.09998 18.6864 4.89998 19.1864L8.79998 22.0864H3.69998C3.29998 23.3864 2.89998 24.6864 2.59998 26.0864Z" fill="white"/>
<path d="M56.3 14.4864C55.5 13.3864 54.7 12.3864 53.8 11.3864L42 19.9864V21.9864H46L56.3 14.4864ZM18.5 22.0864L7.89998 14.2864C7.49998 14.7864 7.19998 15.2864 6.79998 15.7864C6.69998 15.8864 6.69998 15.9864 6.59998 15.9864C6.29998 16.4864 5.89998 17.0864 5.59998 17.5864L11.7 22.0864H18.5Z" fill="#ED4C5C"/>
<path d="M61.4 26.0864H38V2.68643C36.1 2.28643 34.1 2.08643 32 2.08643C29.9 2.08643 27.9 2.28643 26 2.68643V26.0864H2.6C2.2 27.9864 2 29.9864 2 32.0864C2 34.1864 2.2 36.1864 2.6 38.0864H26V61.4864C27.9 61.8864 29.9 62.0864 32 62.0864C34.1 62.0864 36.1 61.8864 38 61.4864V38.0864H61.4C61.8 36.1864 62 34.1864 62 32.0864C62 29.9864 61.8 27.9864 61.4 26.0864Z" fill="#ED4C5C"/>
</svg>
