<svg width="64" height="65" viewBox="0 0 64 65" fill="none" xmlns="http://www.w3.org/2000/svg">
<path d="M31.8 2.08643C18.8 2.08643 7.70001 10.4864 3.60001 22.0864H60.2C56 10.4864 44.9 2.08643 31.8 2.08643Z" fill="#F2B200"/>
<path d="M31.8 62.0864C44.9 62.0864 56 53.7864 60.1 42.0864H3.60001C7.70001 53.7864 18.8 62.0864 31.8 62.0864Z" fill="#83BF4F"/>
<path d="M3.59999 22.0864C2.49999 25.1864 1.89999 28.5864 1.89999 32.0864C1.89999 35.5864 2.49999 38.9864 3.59999 42.0864H60.2C61.3 38.9864 61.9 35.5864 61.9 32.0864C61.9 28.5864 61.3 25.1864 60.2 22.0864H3.59999Z" fill="white"/>
<path d="M31.8 40.0864C36.2183 40.0864 39.8 36.5047 39.8 32.0864C39.8 27.6681 36.2183 24.0864 31.8 24.0864C27.3817 24.0864 23.8 27.6681 23.8 32.0864C23.8 36.5047 27.3817 40.0864 31.8 40.0864Z" fill="#428BC1"/>
<path d="M31.8 39.0864C35.666 39.0864 38.8 35.9524 38.8 32.0864C38.8 28.2204 35.666 25.0864 31.8 25.0864C27.934 25.0864 24.8 28.2204 24.8 32.0864C24.8 35.9524 27.934 39.0864 31.8 39.0864Z" fill="white"/>
<path d="M29.2 26.0864C29.4761 26.0864 29.7 25.8626 29.7 25.5864C29.7 25.3103 29.4761 25.0864 29.2 25.0864C28.9238 25.0864 28.7 25.3103 28.7 25.5864C28.7 25.8626 28.9238 26.0864 29.2 26.0864Z" fill="#428BC1"/>
<path d="M27.6 26.9865C27.8761 26.9865 28.1 26.7626 28.1 26.4865C28.1 26.2103 27.8761 25.9865 27.6 25.9865C27.3239 25.9865 27.1 26.2103 27.1 26.4865C27.1 26.7626 27.3239 26.9865 27.6 26.9865Z" fill="#428BC1"/>
<path d="M26.3 28.2864C26.5761 28.2864 26.8 28.0625 26.8 27.7864C26.8 27.5102 26.5761 27.2864 26.3 27.2864C26.0238 27.2864 25.8 27.5102 25.8 27.7864C25.8 28.0625 26.0238 28.2864 26.3 28.2864Z" fill="#428BC1"/>
<path d="M25.4 29.8865C25.6761 29.8865 25.9 29.6626 25.9 29.3865C25.9 29.1103 25.6761 28.8865 25.4 28.8865C25.1239 28.8865 24.9 29.1103 24.9 29.3865C24.9 29.6626 25.1239 29.8865 25.4 29.8865Z" fill="#428BC1"/>
<path d="M24.9 31.6864C25.1761 31.6864 25.4 31.4625 25.4 31.1864C25.4 30.9103 25.1761 30.6864 24.9 30.6864C24.6239 30.6864 24.4 30.9103 24.4 31.1864C24.4 31.4625 24.6239 31.6864 24.9 31.6864Z" fill="#428BC1"/>
<path d="M24.9 33.4865C25.1761 33.4865 25.4 33.2626 25.4 32.9865C25.4 32.7103 25.1761 32.4865 24.9 32.4865C24.6239 32.4865 24.4 32.7103 24.4 32.9865C24.4 33.2626 24.6239 33.4865 24.9 33.4865Z" fill="#428BC1"/>
<path d="M25.4 35.2864C25.6761 35.2864 25.9 35.0625 25.9 34.7864C25.9 34.5102 25.6761 34.2864 25.4 34.2864C25.1239 34.2864 24.9 34.5102 24.9 34.7864C24.9 35.0625 25.1239 35.2864 25.4 35.2864Z" fill="#428BC1"/>
<path d="M26.3 36.8865C26.5761 36.8865 26.8 36.6626 26.8 36.3865C26.8 36.1103 26.5761 35.8865 26.3 35.8865C26.0238 35.8865 25.8 36.1103 25.8 36.3865C25.8 36.6626 26.0238 36.8865 26.3 36.8865Z" fill="#428BC1"/>
<path d="M27.6 38.1864C27.8761 38.1864 28.1 37.9625 28.1 37.6864C28.1 37.4103 27.8761 37.1864 27.6 37.1864C27.3239 37.1864 27.1 37.4103 27.1 37.6864C27.1 37.9625 27.3239 38.1864 27.6 38.1864Z" fill="#428BC1"/>
<path d="M29.2 39.0864C29.4761 39.0864 29.7 38.8626 29.7 38.5864C29.7 38.3103 29.4761 38.0864 29.2 38.0864C28.9238 38.0864 28.7 38.3103 28.7 38.5864C28.7 38.8626 28.9238 39.0864 29.2 39.0864Z" fill="#428BC1"/>
<path d="M30.9 39.4865C31.1761 39.4865 31.4 39.2626 31.4 38.9865C31.4 38.7103 31.1761 38.4865 30.9 38.4865C30.6239 38.4865 30.4 38.7103 30.4 38.9865C30.4 39.2626 30.6239 39.4865 30.9 39.4865Z" fill="#428BC1"/>
<path d="M32.3 39.0864C32.3 38.7864 32.5 38.5865 32.7 38.4865C33 38.4865 33.2 38.6864 33.3 38.8864C33.3 39.1864 33.1 39.3865 32.9 39.4865C32.5 39.5865 32.3 39.3864 32.3 39.0864Z" fill="#428BC1"/>
<path d="M34.5 39.0864C34.7761 39.0864 35 38.8626 35 38.5864C35 38.3103 34.7761 38.0864 34.5 38.0864C34.2239 38.0864 34 38.3103 34 38.5864C34 38.8626 34.2239 39.0864 34.5 39.0864Z" fill="#428BC1"/>
<path d="M36.1 38.1864C36.3761 38.1864 36.6 37.9625 36.6 37.6864C36.6 37.4103 36.3761 37.1864 36.1 37.1864C35.8239 37.1864 35.6 37.4103 35.6 37.6864C35.6 37.9625 35.8239 38.1864 36.1 38.1864Z" fill="#428BC1"/>
<path d="M37.4 36.8865C37.6761 36.8865 37.9 36.6626 37.9 36.3865C37.9 36.1103 37.6761 35.8865 37.4 35.8865C37.1239 35.8865 36.9 36.1103 36.9 36.3865C36.9 36.6626 37.1239 36.8865 37.4 36.8865Z" fill="#428BC1"/>
<path d="M38.3 35.2864C38.5761 35.2864 38.8 35.0625 38.8 34.7864C38.8 34.5102 38.5761 34.2864 38.3 34.2864C38.0238 34.2864 37.8 34.5102 37.8 34.7864C37.8 35.0625 38.0238 35.2864 38.3 35.2864Z" fill="#428BC1"/>
<path d="M38.8 33.4865C39.0761 33.4865 39.3 33.2626 39.3 32.9865C39.3 32.7103 39.0761 32.4865 38.8 32.4865C38.5238 32.4865 38.3 32.7103 38.3 32.9865C38.3 33.2626 38.5238 33.4865 38.8 33.4865Z" fill="#428BC1"/>
<path d="M38.8 31.6864C38.5 31.6864 38.3 31.4864 38.2 31.2864C38.2 30.9864 38.4 30.7864 38.6 30.6864C38.9 30.6864 39.1 30.8864 39.2 31.0864C39.3 31.3864 39.1 31.5864 38.8 31.6864Z" fill="#428BC1"/>
<path d="M38.3 29.8865C38.5761 29.8865 38.8 29.6626 38.8 29.3865C38.8 29.1103 38.5761 28.8865 38.3 28.8865C38.0238 28.8865 37.8 29.1103 37.8 29.3865C37.8 29.6626 38.0238 29.8865 38.3 29.8865Z" fill="#428BC1"/>
<path d="M37.4 28.2864C37.6761 28.2864 37.9 28.0625 37.9 27.7864C37.9 27.5102 37.6761 27.2864 37.4 27.2864C37.1239 27.2864 36.9 27.5102 36.9 27.7864C36.9 28.0625 37.1239 28.2864 37.4 28.2864Z" fill="#428BC1"/>
<path d="M36.1 26.9865C36.3761 26.9865 36.6 26.7626 36.6 26.4865C36.6 26.2103 36.3761 25.9865 36.1 25.9865C35.8239 25.9865 35.6 26.2103 35.6 26.4865C35.6 26.7626 35.8239 26.9865 36.1 26.9865Z" fill="#428BC1"/>
<path d="M35 25.7864C34.9 26.0864 34.6 26.1864 34.3 26.0864C34 25.9864 33.9 25.6864 34 25.3864C34.1 25.0864 34.4 24.9864 34.7 25.0864C35 25.2864 35.1 25.5864 35 25.7864ZM33.2 25.1864C33.2 25.4864 32.9 25.6864 32.6 25.5864C32.3 25.5864 32.1 25.2864 32.2 24.9864C32.2 24.6864 32.5 24.4864 32.8 24.5864C33.1 24.6864 33.3 24.9864 33.2 25.1864ZM31.4 25.0864C31.4 25.3864 31.2 25.5864 31 25.6864C30.7 25.6864 30.5 25.4864 30.4 25.2864C30.4 24.9864 30.6 24.7864 30.8 24.6864C31.1 24.5864 31.4 24.7864 31.4 25.0864Z" fill="#428BC1"/>
<path d="M31.8 33.5864C32.6284 33.5864 33.3 32.9149 33.3 32.0864C33.3 31.258 32.6284 30.5864 31.8 30.5864C30.9716 30.5864 30.3 31.258 30.3 32.0864C30.3 32.9149 30.9716 33.5864 31.8 33.5864Z" fill="#428BC1"/>
<path d="M31.8 25.0864L31.6 29.3864L31.8 32.0864L32.1 29.3864L31.8 25.0864ZM30 25.2864L30.9 29.5864L31.8 32.0864L31.4 29.3864L30 25.2864Z" fill="#428BC1"/>
<path d="M28.3 25.9865L30.3 29.8864L31.8 32.0865L30.7 29.5865L28.3 25.9865ZM26.9 27.0865L29.8 30.3864L31.8 32.0865L30.1 29.9865L26.9 27.0865Z" fill="#428BC1"/>
<path d="M25.8 28.5864L29.4 30.9864L31.8 32.0864L29.6 30.4864L25.8 28.5864Z" fill="#428BC1"/>
<path d="M25.1 30.2864L29.2 31.5864L31.8 32.0864L29.3 31.1864L25.1 30.2864ZM24.8 32.0864L29.2 32.2864L31.8 32.0864L29.2 31.8864L24.8 32.0864Z" fill="#428BC1"/>
<path d="M25.1 33.8864L29.3 32.9864L31.8 32.0864L29.2 32.5864L25.1 33.8864ZM25.8 35.5864L29.6 33.6864L31.8 32.0864L29.4 33.1864L25.8 35.5864Z" fill="#428BC1"/>
<path d="M26.9 36.9864L30.1 34.1864L31.8 32.0864L29.8 33.7864L26.9 36.9864ZM28.3 38.1864L30.7 34.4864L31.8 32.0864L30.3 34.2864L28.3 38.1864Z" fill="#428BC1"/>
<path d="M30 38.8864L31.4 34.7864L31.8 32.0864L30.9 34.5864L30 38.8864ZM31.8 39.0864L32.1 34.7864L31.8 32.0864L31.6 34.7864L31.8 39.0864ZM33.6 38.8864L32.8 34.5864L31.8 32.0864L32.3 34.7864L33.6 38.8864Z" fill="#428BC1"/>
<path d="M35.3 38.1864L33.4 34.2864L31.8 32.0864L33 34.5864L35.3 38.1864ZM36.8 36.9864L33.9 33.7864L31.8 32.0864L33.6 34.1864L36.8 36.9864Z" fill="#428BC1"/>
<path d="M37.9 35.5864L34.3 33.1864L31.8 32.0864L34 33.6864L37.9 35.5864ZM38.6 33.8864L34.5 32.5864L31.8 32.0864L34.4 32.9864L38.6 33.8864ZM38.8 32.0864L34.5 31.7864L31.8 32.0864L34.5 32.2864L38.8 32.0864ZM38.6 30.2864L34.4 31.1864L31.8 32.0864L34.5 31.5864L38.6 30.2864Z" fill="#428BC1"/>
<path d="M37.9 28.5864L34 30.4864L31.8 32.0864L34.3 30.9864L37.9 28.5864ZM36.8 27.1864L33.6 29.9864L31.8 32.0864L33.9 30.3864L36.8 27.1864Z" fill="#428BC1"/>
<path d="M35.3 25.9865L33 29.6865L31.8 32.0865L33.4 29.8864L35.3 25.9865Z" fill="#428BC1"/>
<path d="M33.7 25.2864L32.3 29.3864L31.8 32.0864L32.8 29.5864L33.7 25.2864Z" fill="#428BC1"/>
</svg>
