<svg width="156" height="28" viewBox="0 0 156 28" fill="none" xmlns="http://www.w3.org/2000/svg">
<path d="M46.864 21.2741V9.91669C46.864 9.09206 46.0852 8.4361 45.4038 8.4361H44.2161V17.2822C44.0214 16.8511 43.7099 16.0827 43.4373 15.5579L41.101 11.0599C40.2054 9.3357 39.0762 8.4361 37.3239 8.4361H36V19.5874C36 20.7119 36.8372 21.2741 37.616 21.2741H38.6673V11.8283C38.901 12.1282 39.193 12.6155 39.5629 13.3277L41.9966 17.8819C43.6515 20.9743 44.7807 21.2741 45.8126 21.2741H46.864Z" fill="black"/>
<path d="M57.6399 17.8257V15.5017C57.6399 12.0158 55.5372 10.9662 53.2008 10.9662C50.4362 10.9662 49.3848 12.3156 49.3848 13.4401V14.246H49.4822C49.8716 13.7775 50.9229 13.084 52.8115 13.084C54.369 13.084 55.0699 13.5151 55.0699 14.9395V15.0706H54.1549C50.2999 15.0706 48.937 16.4388 48.937 18.238C48.937 20.0934 50.6503 21.4428 53.1424 21.4428H53.6681C56.0045 21.4428 57.6399 19.9622 57.6399 17.8257ZM55.0894 17.8444C55.0894 18.8752 54.5442 19.4 53.415 19.4C52.2663 19.4 51.6043 18.9314 51.6043 18.1443C51.6043 17.3196 52.169 16.8698 54.1549 16.8698H55.0894V17.8444Z" fill="black"/>
<path d="M59.8068 11.566V17.6382C59.8068 19.9997 61.0918 21.3866 63.7396 21.3866C65.2582 21.3866 66.037 20.7306 66.037 19.6998V18.8002H65.9397C65.5308 19.0439 64.8883 19.1563 64.0511 19.1563C62.9998 19.1563 62.3962 18.6503 62.3962 17.3384V13.3839H64.4795C65.5503 13.3839 66.037 12.7092 66.037 12.1844V11.1536H62.3962V8.86716H61.7927C61.3838 8.86716 60.9165 9.16703 60.5661 9.5606C60.0015 10.1978 59.8068 10.5727 59.8068 11.566Z" fill="black"/>
<path d="M70.754 8.96087C70.754 8.15498 70.0531 7.49902 69.2159 7.49902C68.3787 7.49902 67.6973 8.15498 67.6973 8.96087C67.6973 9.76676 68.3787 10.4415 69.2159 10.4415C70.0531 10.4415 70.754 9.76676 70.754 8.96087ZM72.623 19.8498V19.3063H72.1363C70.9876 19.3063 70.5398 18.9876 70.5398 17.9756V13.2527C70.5398 11.9783 69.8389 11.3785 68.6707 11.3785H67.9309C67.9309 11.3785 67.9309 17.6382 67.9309 18.2192C67.9309 20.2621 69.0406 21.3678 71.0655 21.3678C72.1752 21.3678 72.623 20.9368 72.623 19.8498Z" fill="black"/>
<path d="M82.5916 12.3531C82.5916 11.5285 82.2606 11.1536 81.365 11.1536H80.2552C79.8658 13.6838 78.9508 16.3638 77.9578 18.2567C76.8481 16.1764 76.3224 14.2273 75.9525 12.3531C75.8551 11.8096 75.2905 11.1536 74.3949 11.1536H72.9931C73.2267 13.8899 75.0179 18.2942 76.4392 20.3745C76.9649 21.1242 77.3737 21.3866 78.1525 21.3866H78.6587C79.8269 19.8498 80.9951 17.4133 81.696 15.5579C82.3385 13.8712 82.5916 12.653 82.5916 12.3531Z" fill="black"/>
<path d="M93 14.8457C93 12.4281 90.9752 10.9287 88.7946 10.9287C85.7963 10.9287 83.6546 13.0465 83.6546 16.42C83.6546 19.5124 86.2051 21.499 88.8141 21.499C91.6955 21.499 92.6106 20.5057 92.6106 19.2125V18.4254H92.5133C91.6761 19.1751 90.3911 19.3812 89.3008 19.3812C87.7627 19.3812 86.5556 18.5753 86.3609 17.3009H88.0742C91.5398 17.3009 93 16.7012 93 14.8457ZM90.5468 14.5459C90.5468 15.2581 89.9822 15.5204 87.5096 15.5204H86.3414L86.3609 15.1831C86.4193 14.0211 87.2954 13.0278 88.561 13.0278C89.7681 13.0278 90.5468 13.5338 90.5468 14.5459Z" fill="black"/>
<path d="M108.485 9.30103V8.49902H99.6027C98.5214 8.49902 98 9.28238 98 9.89788V10.7372H101.804V19.5593C101.804 20.697 102.48 21.2752 103.407 21.2752H104.469V10.7372H106.902C107.771 10.7372 108.485 9.91653 108.485 9.30103Z" fill="black"/>
<path d="M118.655 14.8778C118.655 12.4718 116.647 10.9797 114.484 10.9797C111.511 10.9797 109.387 13.0873 109.387 16.4445C109.387 19.522 111.916 21.499 114.504 21.499C117.362 21.499 118.269 20.5105 118.269 19.2236V18.4402H118.173C117.342 19.1863 116.068 19.3914 114.987 19.3914C113.461 19.3914 112.264 18.5894 112.071 17.3211H113.77C117.207 17.3211 118.655 16.7243 118.655 14.8778ZM116.222 14.5794C116.222 15.2881 115.662 15.5492 113.21 15.5492H112.051L112.071 15.2135C112.129 14.0571 112.998 13.0686 114.253 13.0686C115.45 13.0686 116.222 13.5722 116.222 14.5794Z" fill="black"/>
<path d="M128.805 17.8434V15.5306C128.805 12.0614 126.719 11.017 124.402 11.017C121.66 11.017 120.618 12.3599 120.618 13.4789V14.2809H120.714C121.1 13.8147 122.143 13.1246 124.016 13.1246C125.561 13.1246 126.256 13.5535 126.256 14.971V15.1016H125.348C121.525 15.1016 120.173 16.4632 120.173 18.2537C120.173 20.1002 121.873 21.4431 124.344 21.4431H124.866C127.183 21.4431 128.805 19.9696 128.805 17.8434ZM126.275 17.862C126.275 18.8878 125.735 19.4101 124.615 19.4101C123.475 19.4101 122.819 18.9438 122.819 18.1604C122.819 17.3398 123.379 16.8921 125.348 16.8921H126.275V17.862Z" fill="black"/>
<path d="M145.996 21.2752V15.2322C145.996 12.3785 144.065 10.9797 141.671 10.9797C140.416 10.9797 139.277 11.6138 138.678 12.5464C137.925 11.5765 136.863 10.9797 135.511 10.9797C132.364 10.9797 130.877 12.8075 130.877 15.5492V19.4474C130.877 20.6038 131.688 21.2752 132.75 21.2752H133.445V15.3441C133.445 13.9639 134.198 13.1992 135.202 13.1992C136.341 13.1992 137.133 13.9079 137.133 15.5679V19.4474C137.133 20.6411 137.886 21.2752 139.026 21.2752H139.721V15.2881C139.721 13.9079 140.435 13.1992 141.478 13.1992C142.617 13.1992 143.39 13.9079 143.39 15.5679V19.4474C143.39 20.6411 143.95 21.2752 145.359 21.2752H145.996Z" fill="black"/>
<path d="M156 18.1045C156 16.5005 154.841 15.5865 152.679 15.2508C150.902 14.971 150.593 14.7659 150.593 14.2623C150.593 13.6095 151.095 13.1432 152.679 13.1432C153.915 13.1432 155.112 13.5535 155.652 14.0758H155.749V13.1246C155.749 12.1547 154.783 10.9797 152.428 10.9797C149.763 10.9797 148.006 12.5837 148.006 14.4675C148.006 15.9969 149.068 16.8362 151.269 17.1346C153.065 17.3771 153.432 17.6568 153.432 18.235C153.432 18.9811 152.814 19.3355 151.539 19.3355C150.304 19.3355 148.971 18.8878 148.411 18.3842H148.315V19.522C148.315 20.5478 149.744 21.499 151.655 21.499C154.455 21.499 156 20.2307 156 18.1045Z" fill="black"/>
<path d="M17.1141 5.01982C17.1141 4.1296 16.8488 3.24846 16.3548 2.50357C15.8608 1.75869 15.1656 1.17732 14.3422 0.832128C13.5281 0.496022 12.6224 0.414267 11.7442 0.586862C10.8752 0.768541 10.0701 1.20457 9.44807 1.84045C8.97237 2.31281 8.6156 2.8851 8.3869 3.51189C8.1582 4.13868 8.07587 4.81089 8.13991 5.4831C8.20394 6.14623 8.41435 6.79119 8.76197 7.36348C9.10959 7.93577 9.56699 8.4263 10.125 8.79874C10.7379 9.20752 11.4423 9.46187 12.1742 9.53454C12.906 9.60721 13.647 9.4982 14.3331 9.2166C14.882 8.98042 15.376 8.64431 15.7876 8.20828C16.6384 7.36348 17.1141 6.20982 17.1141 5.01982Z" fill="#5152FB"/>
<path d="M2.76025 12.2051L10.7647 26.158C11.771 27.9475 13.4725 27.9475 14.488 26.158L18.0008 20.0173C12.9968 21.2436 5.59613 17.1467 2.76025 12.2051Z" fill="#FDBC42"/>
<path d="M23.4996 5.01953C21.7889 5.01953 19.7032 6.5638 18.8616 8.45326C18.8616 8.45326 16.9131 12.8408 12.6227 12.8408C11.1498 12.8408 9.72274 12.3048 8.60669 11.3329C10.0155 13.0497 14.8182 16.7651 21.917 13.1951L24.7346 8.28975C25.7683 6.48204 25.2011 5.01953 23.4996 5.01953Z" fill="#5152FB"/>
<path d="M8.60609 11.3241C7.68215 10.5247 6.92286 9.54363 6.39228 8.44447C5.55067 6.55501 3.46493 5.01074 1.7634 5.01074C0.0435824 5.01983 -0.514444 6.48234 0.519277 8.28096L2.76053 12.1961C5.59641 17.1378 12.9971 21.2437 18.0194 20.0083L21.9255 13.1954C14.8084 16.7654 10.0149 13.05 8.60609 11.3241Z" fill="#FA4769"/>
</svg>
