<svg width="64" height="65" viewBox="0 0 64 65" fill="none" xmlns="http://www.w3.org/2000/svg">
<path d="M48 6.68643C43.3 3.78643 37.9 2.08643 32 2.08643V6.68643H48Z" fill="#ED4C5C"/>
<path d="M32 11.2864H53.6C51.9 9.5864 50 7.9864 48 6.6864H32V11.2864Z" fill="white"/>
<path d="M32 15.8864H57.3C56.2 14.1864 55 12.6864 53.7 11.2864H32V15.8864Z" fill="#ED4C5C"/>
<path d="M32 20.4864H59.7C59 18.8864 58.2 17.2864 57.3 15.8864H32V20.4864Z" fill="white"/>
<path d="M32 25.0865H61.2C60.8 23.4865 60.3 21.9865 59.7 20.4865H32V25.0865Z" fill="#ED4C5C"/>
<path d="M32 29.7864H61.9C61.8 28.1864 61.5 26.6864 61.2 25.1864H32V29.7864Z" fill="white"/>
<path d="M61.9 29.7864H32V32.0864H2C2 32.8864 2 33.5864 2.1 34.3864H61.9C62 33.5864 62 32.8864 62 32.0864C62 31.2864 62 30.4864 61.9 29.7864Z" fill="#ED4C5C"/>
<path d="M2.79998 38.9864H61.2C61.6 37.4864 61.8 35.9864 61.9 34.3864H2.09998C2.19998 35.8864 2.39998 37.4864 2.79998 38.9864Z" fill="white"/>
<path d="M4.29999 43.5864H59.7C60.3 42.0864 60.8 40.5865 61.2 38.9865H2.79999C3.19999 40.5865 3.69999 42.0864 4.29999 43.5864Z" fill="#ED4C5C"/>
<path d="M6.69999 48.1864H57.3C58.2 46.6864 59 45.1864 59.7 43.5864H4.29999C4.99999 45.1864 5.79999 46.6864 6.69999 48.1864Z" fill="white"/>
<path d="M10.3 52.7864H53.7C55 51.3864 56.3 49.7864 57.3 48.1864H6.70001C7.70001 49.8864 9.00001 51.3864 10.3 52.7864Z" fill="#ED4C5C"/>
<path d="M15.9 57.3864H48.1C50.2 56.0864 52 54.4864 53.7 52.7864H10.3C12 54.5864 13.9 56.0864 15.9 57.3864Z" fill="white"/>
<path d="M32 62.0864C37.9 62.0864 43.4 60.3864 48.1 57.3864H15.9C20.6 60.3864 26.1 62.0864 32 62.0864Z" fill="#ED4C5C"/>
<path d="M16 6.68643C13.9 7.98643 12 9.58643 10.3 11.2864C8.9 12.6864 7.7 14.2864 6.7 15.8864C5.8 17.3864 4.9 18.8864 4.3 20.4864C3.7 21.9864 3.2 23.4864 2.8 25.0864C2.4 26.5864 2.2 28.0864 2.1 29.6864C2 30.4864 2 31.2864 2 32.0864H32V2.08643C26.1 2.08643 20.7 3.78643 16 6.68643Z" fill="#428BC1"/>
<path d="M25 3.08643L25.5 4.58643H27L25.8 5.58643L26.2 7.08643L25 6.18643L23.8 7.08643L24.2 5.58643L23 4.58643H24.5L25 3.08643ZM29 9.08643L29.5 10.5864H31L29.8 11.5864L30.2 13.0864L29 12.1864L27.8 13.0864L28.2 11.5864L27 10.5864H28.5L29 9.08643ZM21 9.08643L21.5 10.5864H23L21.8 11.5864L22.2 13.0864L21 12.1864L19.8 13.0864L20.2 11.5864L19 10.5864H20.5L21 9.08643ZM25 15.0864L25.5 16.5864H27L25.8 17.5864L26.2 19.0864L25 18.1864L23.8 19.0864L24.2 17.5864L23 16.5864H24.5L25 15.0864ZM17 15.0864L17.5 16.5864H19L17.8 17.5864L18.2 19.0864L17 18.1864L15.8 19.0864L16.2 17.5864L15 16.5864H16.5L17 15.0864ZM9.00002 15.0864L9.50002 16.5864H11L9.80002 17.5864L10.2 19.0864L9.00002 18.1864L7.80002 19.0864L8.20002 17.5864L7.00002 16.5864H8.50002L9.00002 15.0864ZM29 21.0864L29.5 22.5864H31L29.8 23.5864L30.2 25.0864L29 24.1864L27.8 25.0864L28.2 23.5864L27 22.5864H28.5L29 21.0864ZM21 21.0864L21.5 22.5864H23L21.8 23.5864L22.2 25.0864L21 24.1864L19.8 25.0864L20.2 23.5864L19 22.5864H20.5L21 21.0864ZM13 21.0864L13.5 22.5864H15L13.8 23.5864L14.2 25.0864L13 24.1864L11.8 25.0864L12.2 23.5864L11 22.5864H12.5L13 21.0864ZM25 27.0864L25.5 28.5864H27L25.8 29.5864L26.2 31.0864L25 30.1864L23.8 31.0864L24.2 29.5864L23 28.5864H24.5L25 27.0864ZM17 27.0864L17.5 28.5864H19L17.8 29.5864L18.2 31.0864L17 30.1864L15.8 31.0864L16.2 29.5864L15 28.5864H16.5L17 27.0864ZM9.00002 27.0864L9.50002 28.5864H11L9.80002 29.5864L10.2 31.0864L9.00002 30.1864L7.80002 31.0864L8.20002 29.5864L7.00002 28.5864H8.50002L9.00002 27.0864ZM11.8 13.0864L13 12.1864L14.2 13.0864L13.7 11.5864L14.9 10.5864H13.4L13 9.08643L12.5 10.5864H11.1L12.3 11.4864L11.8 13.0864ZM3.80002 25.0864L5.00002 24.1864L6.20002 25.0864L5.70002 23.5864L6.90002 22.5864H5.50002L5.00002 21.0864L4.50002 22.5864H3.50002C3.50002 22.6864 3.40002 22.7864 3.40002 22.8864L4.20002 23.4864L3.80002 25.0864Z" fill="white"/>
</svg>
